<svg width="50" height="50" viewBox="0 0 50 50" fill="none" xmlns="http://www.w3.org/2000/svg">
<g clip-path="url(#clip0_27_35)">
<path d="M23.276 0.439941H6.897C3.088 0.439941 0 3.52794 0 7.33694V17.6819C0 21.4909 3.088 24.5789 6.897 24.5789H8.621V32.3379L16.38 24.5789H19.828V15.9579C19.828 12.1489 22.916 9.06094 26.725 9.06094H30.173V7.33694C30.172 3.52694 27.085 0.439941 23.276 0.439941Z" fill="url(#paint0_linear_27_35)"/>
<path d="M41.688 9.04004H21.947C17.356 9.04004 13.635 12.7611 13.635 17.3521V29.8201C13.635 34.4111 17.356 38.132 21.947 38.132H28.181L39.61 49.5611V38.132H41.688C46.279 38.132 50 34.4111 50 29.8201V17.3521C50 12.7611 46.279 9.04004 41.688 9.04004Z" fill="url(#paint1_linear_27_35)"/>
<path d="M32.737 22.762C33.777 22.762 34.677 22.389 35.413 21.653C36.149 20.917 36.522 20.017 36.522 18.977C36.522 17.937 36.149 17.037 35.413 16.301C34.677 15.566 33.777 15.193 32.737 15.193C31.697 15.193 30.797 15.566 30.061 16.302C29.325 17.038 28.952 17.938 28.952 18.978C28.952 20.018 29.325 20.918 30.061 21.654C30.797 22.389 31.697 22.762 32.737 22.762Z" fill="white"/>
<path d="M38.718 26.589C38.661 26.269 38.586 25.965 38.497 25.686C38.399 25.381 38.267 25.082 38.105 24.795C37.927 24.482 37.715 24.207 37.476 23.977C37.211 23.724 36.892 23.522 36.525 23.377C36.162 23.233 35.764 23.16 35.342 23.16C34.988 23.16 34.711 23.321 34.457 23.487C34.305 23.587 34.132 23.698 33.941 23.82C33.861 23.871 33.706 23.951 33.428 24.041C33.014 24.175 32.623 24.175 32.208 24.041C31.93 23.951 31.775 23.871 31.695 23.82C31.503 23.697 31.331 23.586 31.178 23.486C30.925 23.321 30.648 23.16 30.294 23.16C29.872 23.16 29.474 23.233 29.111 23.377C28.745 23.522 28.425 23.724 28.159 23.978C27.92 24.207 27.708 24.482 27.531 24.795C27.368 25.082 27.236 25.382 27.138 25.686C27.049 25.965 26.974 26.269 26.917 26.589C26.861 26.901 26.823 27.198 26.804 27.474C26.786 27.735 26.777 28.006 26.777 28.278C26.777 29.359 27.239 30.025 27.626 30.394C28.174 30.916 28.885 31.181 29.736 31.181H35.898C36.75 31.181 37.46 30.916 38.009 30.394C38.396 30.025 38.858 29.359 38.858 28.277C38.858 28.003 38.848 27.733 38.831 27.473C38.812 27.198 38.774 26.901 38.718 26.589Z" fill="white"/>
</g>
<defs>
<linearGradient id="paint0_linear_27_35" x1="0" y1="16.3878" x2="30.1724" y2="16.3878" gradientUnits="userSpaceOnUse">
<stop stop-color="#003F7E"/>
<stop offset="0.9906" stop-color="#3F6FD1"/>
</linearGradient>
<linearGradient id="paint1_linear_27_35" x1="13.6353" y1="29.3" x2="50" y2="29.3" gradientUnits="userSpaceOnUse">
<stop stop-color="#4F87FB"/>
<stop offset="1" stop-color="#4FBEFB"/>
</linearGradient>
<clipPath id="clip0_27_35">
<rect width="50" height="50" fill="white"/>
</clipPath>
</defs>
</svg>
