<svg width="70" height="70" viewBox="0 0 70 70" fill="none" xmlns="http://www.w3.org/2000/svg">
<path d="M21 52.4999V50.1666V47.8333H25.6667V52.4999H21Z" fill="#E1E8EF"/>
<path d="M44.3333 28.7292V26.6146V24.5H49V28L48.3146 28.0729C47.9208 28.1167 47.0604 28.2479 46.375 28.3792C45.6896 28.4958 44.9604 28.6271 44.3333 28.7292Z" fill="#E1E8EF"/>
<path d="M32.6667 29.1667V26.8333V24.5H37.3333V29.1667H32.6667Z" fill="#E1E8EF"/>
<path d="M11.6812 0.714583L12.0312 0.364583C12.25 0.13125 12.5417 0 12.8333 0C13.1104 0 13.4021 0.13125 14 0.729166V9.77083L13.6354 10.1354C13.4167 10.3687 13.125 10.5 12.8333 10.5C12.5562 10.5 12.2646 10.3687 11.6667 9.77083L11.6812 0.714583Z" fill="#E1E8EF"/>
<path d="M28.0146 0.714583L28.3646 0.364583C28.5833 0.13125 28.875 0 29.1667 0C29.4437 0 29.7354 0.13125 30.3333 0.729166V9.77083L29.9687 10.1354C29.75 10.3687 29.4583 10.5 29.1667 10.5C28.8896 10.5 28.5979 10.3687 28 9.77083L28.0146 0.714583Z" fill="#E1E8EF"/>
<path d="M44.3479 0.714583L44.6979 0.364583C44.9166 0.13125 45.2083 0 45.5 0C45.7771 0 46.0687 0.13125 46.6666 0.729166V9.77083L46.3021 10.1354C46.0833 10.3687 45.7916 10.5 45.5 10.5C45.2229 10.5 44.9312 10.3687 44.3333 9.77083L44.3479 0.714583Z" fill="#E1E8EF"/>
<path d="M3.00417 6.60617C3.48542 6.34367 4.12708 6.08117 4.44792 6.00825C4.76875 5.92075 5.99375 5.86242 9.33333 5.83325V7.83117C9.33333 8.96867 9.42083 10.0916 9.50833 10.427C9.625 10.777 9.975 11.302 10.4271 11.7395C10.8646 12.1916 11.3896 12.5416 11.7396 12.6583C12.0604 12.7458 12.5562 12.8333 12.8333 12.8333C13.1104 12.8333 13.6062 12.7458 13.9271 12.6583C14.2771 12.5416 14.8021 12.1916 15.2396 11.7395C15.6917 11.302 16.0417 10.777 16.1583 10.427C16.2458 10.0916 16.3333 8.96867 16.3333 5.83325H25.6667V7.83117C25.6667 8.96867 25.7542 10.0916 25.8417 10.427C25.9583 10.777 26.3083 11.302 26.7604 11.7395C27.1979 12.1916 27.7229 12.5416 28.0729 12.6583C28.3937 12.7458 28.8896 12.8333 29.1667 12.8333C29.4437 12.8333 29.9396 12.7458 30.2604 12.6583C30.6104 12.5416 31.1354 12.1916 31.5729 11.7395C32.025 11.302 32.375 10.777 32.4917 10.427C32.5792 10.0916 32.6667 8.96867 32.6667 5.83325H42V7.83117C42 8.96867 42.0875 10.0916 42.175 10.427C42.2917 10.777 42.6417 11.302 43.0937 11.7395C43.5312 12.1916 44.0562 12.5416 44.4062 12.6583C44.7271 12.7458 45.2229 12.8333 45.5 12.8333C45.7771 12.8333 46.2729 12.7458 46.5937 12.6583C46.9437 12.5416 47.4687 12.1916 47.9062 11.7395C48.3583 11.302 48.7083 10.777 48.825 10.427C48.9125 10.0916 49 8.96867 49 5.83325L53.9 5.90617L54.9937 6.44575C55.6937 6.78117 56.3062 7.21867 56.7292 7.68533C57.0792 8.0645 57.575 8.80825 57.8083 9.33325C58.2458 10.252 58.2604 10.3395 58.3333 15.1666H0L0.04375 12.7166C0.0729166 10.3395 0.0875 10.252 0.525 9.33325C0.758333 8.80825 1.225 8.09367 1.56042 7.72908C1.88125 7.3645 2.5375 6.86867 3.00417 6.60617Z" fill="#E1E8EF"/>
<path fill-rule="evenodd" clip-rule="evenodd" d="M0 17.5H58.3333V29.5312L57.05 29.1083C56.35 28.8896 55.1542 28.5833 54.3958 28.4375C53.6375 28.2917 52.6312 28.1312 51.3333 28V25.4479C51.3333 22.925 51.3333 22.8958 50.6042 22.1667H42.7146L42 22.8958L42.0146 29.5312L39.6667 30.625V22.8958L38.9375 22.1667H31.0479L30.3333 22.8958V26.8042C30.3187 30.45 30.3333 30.7271 30.8875 31.4271L38.0917 31.5729L37.3917 32.0687C36.9979 32.3458 36.3562 32.8562 35.2187 33.8187L33.1333 33.8333C31.1062 33.8333 31.0333 33.8479 30.6979 34.1979C30.3333 34.5625 30.3333 34.5771 30.3333 40.25L29.8375 41.3875C29.575 42 29.1812 43.0646 28.9771 43.75C28.7583 44.4354 28.4812 45.6167 28.0729 47.7604L28 46.9146C27.9417 46.2292 27.8542 45.9958 27.5625 45.7771C27.2271 45.5 26.95 45.4854 19.3812 45.5L18.6667 46.2292V54.1042L19.3958 54.8333H27.2854L27.6354 54.4687C27.9271 54.1771 28 53.9583 28 53.4042C28 53.025 28.0292 52.7479 28.0583 52.7917C28.1021 52.8354 28.2333 53.4333 28.3646 54.1479C28.4812 54.8479 28.7875 56.0583 29.0354 56.8312C29.2833 57.6187 29.7354 58.7854 30.0271 59.4271C30.3333 60.0687 30.7562 60.8708 31.3542 61.8333L4.44792 61.7604L3.5 61.3229C2.975 61.075 2.23125 60.5792 1.85208 60.2292C1.38542 59.8062 0.947916 59.1937 0.0729166 57.4L0 17.5ZM18.6812 22.8812L18.6667 30.7708L19.3958 31.5H27.2854L28 30.7708V22.8958L27.2708 22.1667H19.3812L18.6812 22.8812ZM7.01458 34.5479V42.4375L7.74375 43.1667H15.6187L16.3479 42.4375V34.5625L15.6187 33.8333H7.72916L7.01458 34.5479ZM18.6812 34.5479L18.6667 42.4375L19.3958 43.1667H27.2854L28 42.4375V34.5625L27.2708 33.8333H19.3812L18.6812 34.5479ZM7.01458 46.2146L7 54.1042L7.72916 54.8333H15.6187L16.3333 54.1042V46.2292L15.6042 45.5H7.71458L7.01458 46.2146Z" fill="#E1E8EF"/>
<path d="M9.33333 52.4999V50.1666V47.8333H14V52.4999H9.33333Z" fill="#E1E8EF"/>
<path d="M21 40.8334V38.5001V36.1667H25.6667V40.8334H21Z" fill="#E1E8EF"/>
<path d="M9.33333 40.8334V38.5001V36.1667H14V40.8334H9.33333Z" fill="#E1E8EF"/>
<path d="M21 29.1667V26.8333V24.5H25.6667V29.1667H21Z" fill="#E1E8EF"/>
<path fill-rule="evenodd" clip-rule="evenodd" d="M50.6771 30.4063C52.0771 30.4501 53.3312 30.5667 54.1771 30.7563C54.8916 30.9167 56.0875 31.2522 56.8021 31.5001C57.5166 31.7626 58.5083 32.1709 58.9896 32.4042C59.4708 32.6522 60.3166 33.148 60.8854 33.5126C61.4541 33.8626 62.4312 34.5917 63.0583 35.1313C63.7 35.6563 64.6625 36.6188 65.2021 37.2605C65.7271 37.9022 66.4708 38.8792 66.8208 39.448C67.1854 40.0167 67.6812 40.8626 67.9291 41.3438C68.1625 41.8251 68.5708 42.8167 68.8333 43.5313C69.0812 44.2459 69.4458 45.6021 69.65 46.5209C69.9271 47.8334 70 48.6355 70 50.1667C70 51.5521 69.9125 52.573 69.7083 53.5938C69.5479 54.3959 69.2416 55.5771 69.0375 56.2188C68.8333 56.8605 68.3958 57.9396 68.0896 58.6251C67.7687 59.3105 67.0687 60.5209 66.5291 61.323C65.975 62.1542 64.9687 63.3792 64.1666 64.1667C63.3791 64.9688 62.1833 65.9605 61.3958 66.4855C60.6375 66.9959 59.5875 67.623 59.0625 67.8855C58.5375 68.148 57.4583 68.6001 56.6562 68.8771C55.8541 69.1542 54.5125 69.5188 53.6666 69.6938C52.5583 69.9126 51.5812 70.0001 50.1667 70.0001C48.7521 70.0001 47.775 69.9126 46.6667 69.6938C45.8208 69.5188 44.4792 69.1542 43.6771 68.8771C42.875 68.6001 41.7958 68.148 41.2708 67.8855C40.7458 67.623 39.6958 66.9959 38.9375 66.4855C38.1646 65.9751 36.9396 64.9396 36.1667 64.1667C35.35 63.3646 34.3729 62.1688 33.8042 61.323C33.2646 60.5209 32.5646 59.3105 32.2437 58.6251C31.9229 57.9396 31.5 56.8605 31.2812 56.2188C31.0771 55.5771 30.8 54.498 30.6542 53.8126C30.4937 52.9521 30.4208 51.8438 30.4208 50.1667C30.4208 48.4896 30.4937 47.3813 30.6542 46.5209C30.8 45.8355 31.0771 44.7563 31.2958 44.1147C31.5 43.473 31.9375 42.3938 32.2583 41.7084C32.5646 41.023 33.2646 39.8126 33.8042 39.0105C34.3729 38.1501 35.35 36.9834 36.1667 36.1667C36.9396 35.3792 38.1646 34.373 38.9375 33.848C39.6958 33.3376 40.6875 32.7397 41.125 32.5209C41.5625 32.3022 42.35 31.9376 42.875 31.7334C43.4 31.5147 44.275 31.223 44.8437 31.0626C45.4125 30.9022 46.4625 30.6688 47.1771 30.5522C48.0958 30.4063 49.1604 30.3626 50.6771 30.4063ZM45.5 35.7584C44.975 35.9188 43.9979 36.3417 43.3125 36.6772C42.6271 37.0272 41.6792 37.5959 41.1979 37.9459C40.7167 38.3105 39.9292 38.9813 39.4625 39.4626C38.9812 39.9292 38.3104 40.7167 37.9458 41.198C37.5958 41.6792 37.0417 42.598 36.7062 43.2397C36.3854 43.8813 35.9771 44.8292 35.8021 45.3542C35.6271 45.8792 35.3646 46.9876 35.2187 47.8334C35.0292 48.9563 34.9854 49.773 35.0437 50.8959C35.0875 51.7417 35.2333 52.8501 35.35 53.3751C35.4667 53.9001 35.7 54.6876 35.8458 55.1251C36.0062 55.5626 36.3854 56.4521 36.7208 57.0938C37.0417 57.7355 37.5958 58.6542 37.9458 59.1355C38.2958 59.6167 39.0104 60.4188 39.5354 60.9146C40.0458 61.4251 40.7896 62.0813 41.1979 62.373C41.5917 62.6792 42.525 63.2334 43.2396 63.6126C43.9542 63.9771 45.1062 64.4438 45.7917 64.648C46.4771 64.8521 47.5125 65.0855 48.0812 65.173C48.6646 65.2605 49.6271 65.3334 50.1958 65.3334C50.7792 65.3334 51.8583 65.2313 52.5729 65.1146C53.2875 64.9834 54.3083 64.7501 54.8333 64.5751C55.3583 64.4146 56.3062 64.0063 56.9479 63.6855C57.5896 63.3792 58.5375 62.7959 59.0625 62.4167C59.5875 62.023 60.4771 61.2355 61.0312 60.6376C61.6 60.0542 62.3 59.2376 62.5916 58.8438C62.8687 58.4355 63.3792 57.5896 63.6854 56.948C64.0062 56.3063 64.4146 55.3584 64.575 54.8334C64.75 54.3084 64.9833 53.2876 65.1146 52.573C65.2312 51.8584 65.3333 50.7792 65.3333 50.1959C65.3333 49.6271 65.2604 48.6646 65.1729 48.0813C65.0854 47.5126 64.8521 46.4771 64.6479 45.7917C64.4437 45.1063 63.9916 43.998 63.6416 43.3126C63.2916 42.6272 62.7812 41.7376 62.4896 41.3438C62.2125 40.9355 61.5271 40.1626 60.9875 39.6084C60.4479 39.0397 59.6166 38.2959 59.1354 37.9459C58.6541 37.5959 57.7354 37.0417 57.0937 36.7209C56.4521 36.3855 55.5625 36.0063 55.125 35.8459C54.6875 35.7001 53.9 35.4667 53.375 35.3501C52.85 35.2188 51.6104 35.1022 50.6041 35.0584C49.3792 35.0292 48.4021 35.073 47.6146 35.2188C46.9729 35.3501 46.025 35.5834 45.5 35.7584Z" fill="#E1E8EF"/>
<path fill-rule="evenodd" clip-rule="evenodd" d="M49 38.8354C49.0729 40.1625 49.1021 40.2937 49.4375 40.5562C49.6416 40.7167 49.9916 40.8479 50.2104 40.8333C50.4437 40.8333 50.7646 40.6729 50.9687 40.4687C51.3041 40.1333 51.3333 39.9875 51.3333 37.4062L52.1791 37.5229C52.6312 37.5812 53.3021 37.7271 53.6666 37.8292C54.0312 37.9458 54.7166 38.1937 55.1979 38.3833C55.6791 38.5729 56.5541 39.0396 57.1375 39.4187C57.7062 39.7979 58.6396 40.5562 59.2083 41.125C59.7771 41.6937 60.5354 42.6271 60.9146 43.1958C61.2937 43.7792 61.7604 44.6542 61.95 45.1354C62.1396 45.6167 62.3875 46.3021 62.5041 46.6667C62.6062 47.0312 62.7521 47.7021 62.9271 49H61.5708C60.3166 49 60.1854 49.0292 59.8646 49.3646C59.6312 49.5833 59.5 49.9042 59.5 50.1667C59.5 50.4437 59.6312 50.7354 59.8646 50.9687C60.2 51.3042 60.3312 51.3333 62.9271 51.3333L62.8104 52.1792C62.7521 52.6312 62.5625 53.4333 62.4021 53.9583C62.2416 54.4833 61.8771 55.3583 61.6 55.9271C61.3229 56.4958 60.6958 57.4729 60.1854 58.1146C59.6896 58.7562 58.7562 59.675 58.1146 60.1854C57.4729 60.6958 56.4958 61.3375 55.9271 61.6C55.3583 61.8771 54.4833 62.2417 53.9583 62.4021C53.4333 62.5625 52.6312 62.7521 51.3333 62.9271V61.5708C51.3333 60.3312 51.3041 60.2 50.9687 59.8646C50.7354 59.6312 50.4437 59.5 50.1666 59.5C49.875 59.5 49.5833 59.6312 49.3646 59.8646C49.0291 60.2 49 60.3458 49 62.9271L48.1541 62.8104C47.7021 62.7521 47.0312 62.6062 46.6666 62.5042C46.3021 62.3875 45.6166 62.1396 45.1354 61.95C44.6541 61.7604 43.7792 61.2937 43.1958 60.9146C42.6271 60.5354 41.6937 59.7771 41.125 59.2083C40.5562 58.6396 39.7979 57.7062 39.4187 57.1229C39.0396 56.5542 38.5729 55.6792 38.3833 55.1979C38.1937 54.7167 37.9458 54.0312 37.8292 53.6667C37.7271 53.3021 37.5812 52.6312 37.4062 51.3333H38.7625C40.0167 51.3333 40.1479 51.3042 40.4687 50.9687C40.7021 50.75 40.8333 50.4292 40.8333 50.1667C40.8333 49.8896 40.7021 49.5979 40.4687 49.3646C40.1333 49.0292 40.0021 49 37.4062 49L37.5229 48.1542C37.5812 47.7021 37.7271 47.0312 37.8292 46.6667C37.9458 46.3021 38.1937 45.6167 38.3833 45.1354C38.5729 44.6542 39.0542 43.7646 39.4479 43.1667C39.8271 42.5687 40.5854 41.6354 41.1104 41.1104C41.6354 40.5854 42.5687 39.8271 43.1666 39.4479C43.7646 39.0542 44.6833 38.5583 45.2083 38.3542C45.7333 38.1354 46.6083 37.8583 47.1771 37.7271C47.7458 37.5958 48.3583 37.4646 48.5625 37.45C48.9271 37.4062 48.9271 37.4208 49 38.8354ZM49.0146 47.2792V50.6771C52.1646 53.8417 53.1708 54.7312 53.375 54.775C53.5791 54.8187 53.9 54.7896 54.1041 54.7021C54.3083 54.6146 54.5562 54.3812 54.6583 54.1771C54.7458 53.9729 54.8333 53.6667 54.8333 53.4771C54.8333 53.2583 54.25 52.5875 53.0833 51.4062L51.3333 49.6562C51.3333 43.8958 51.3333 43.8958 50.9687 43.5312C50.7354 43.2979 50.4437 43.1667 50.1666 43.1667C49.875 43.1667 49.5833 43.2979 49.3646 43.5312C49.0146 43.8812 49.0146 43.8812 49.0146 47.2792Z" fill="#E1E8EF"/>
</svg>
