<svg width="70" height="70" viewBox="0 0 70 70" fill="none" xmlns="http://www.w3.org/2000/svg">
<path d="M17.4256 5.30145C26.365 2.55032 33.7885 0.236866 33.9135 0.158708C34.0385 0.0649196 34.523 0.00239386 34.9762 0.00239386C35.4138 -0.0132376 35.9139 0.0492882 36.0546 0.143077C36.2109 0.221234 43.65 2.55032 68.8429 10.2723L69.3586 10.8819C69.6399 11.2101 69.9056 11.6791 69.9525 11.9448C69.9994 12.1949 70.015 18.2599 69.9837 25.4191L69.9837 25.4326C69.9369 38.3932 69.9367 38.4246 69.6087 38.8622C69.4211 39.0966 69.0773 39.4405 68.8585 39.6125C68.5459 39.847 68.1865 39.9251 67.5145 39.9251C66.8268 39.9251 66.4986 39.847 66.1548 39.5968C65.9204 39.4093 65.5765 39.0654 65.4046 38.8465C65.0929 38.4256 65.0921 38.1446 65.061 27.2541L65.0608 27.1698C65.0295 20.9954 64.9827 15.9308 64.9358 15.9308C64.8889 15.9308 58.2312 17.9786 50.1357 20.464C42.0246 22.965 35.2263 24.9971 35.0075 24.9971C34.7887 24.9971 27.1308 22.6836 1.32841 14.7585L0.672019 14.0863C0.0781418 13.508 0 13.3516 0 12.7264C0 12.3356 0.0937701 11.7885 0.218797 11.5071C0.328195 11.2414 0.593877 10.8506 0.797046 10.6474C1.07836 10.3973 5.39178 9.00611 17.4256 5.30145Z" fill="#E1E8EF"/>
<path d="M25.0522 44.6145C25.0991 43.9267 25.2085 43.0357 25.3179 42.6293V42.6137C25.4273 42.2073 25.568 41.879 25.6461 41.879C25.7242 41.879 27.5996 42.5668 29.8032 43.3953C33.6009 44.8334 33.8979 44.9272 35.0075 44.9272C36.1171 44.9272 36.414 44.8334 40.2899 43.364C42.5403 42.5043 44.4157 41.8321 44.4626 41.879C44.4939 41.9259 44.6502 42.4886 44.7908 43.1295C44.9627 43.9424 45.0096 44.7083 44.9627 45.6306C44.9158 46.3652 44.7283 47.4126 44.5564 47.9753C44.3845 48.538 43.9781 49.4446 43.65 50.0074C43.3218 50.5701 42.556 51.508 41.9621 52.1176C41.165 52.9148 40.493 53.3994 39.5397 53.884C38.8052 54.2435 37.7268 54.6499 37.1173 54.775C36.5078 54.9 35.5701 55.0094 35.0075 55.0094C34.4449 55.0094 33.5384 54.9156 32.9758 54.7906C32.4132 54.6812 31.4286 54.3373 30.7878 54.0247C30.1471 53.7277 29.2094 53.1493 28.7092 52.7585C28.2248 52.3677 27.5371 51.6643 27.1777 51.211C26.8338 50.7733 26.3025 49.9136 26.0055 49.304C25.7086 48.6943 25.3648 47.6783 25.2241 47.0374C25.0678 46.2715 25.0053 45.443 25.0522 44.6145Z" fill="#E1E8EF"/>
<path d="M13.5029 27.1854C14.0811 24.3092 14.5812 21.8551 14.6125 21.7613V21.7457C14.6594 21.6519 14.7531 21.5581 14.8469 21.5581C14.9251 21.5581 19.3323 22.8868 24.6146 24.5281C31.3036 26.5914 34.4449 27.4981 34.9606 27.4981C35.492 27.4981 38.5239 26.6383 45.4003 24.5281C50.7296 22.8868 55.1524 21.5737 55.2462 21.605C55.34 21.6519 55.887 24.0904 56.4808 27.0447C57.1997 30.6556 57.5279 32.5939 57.4654 32.9691C57.4029 33.2661 57.1372 33.7819 56.8559 34.1102C56.3714 34.6573 55.7463 34.9074 45.9161 38.5964C40.1648 40.7535 35.2575 42.5042 35.0075 42.5042C34.7418 42.5042 29.8501 40.7535 24.0989 38.5964C14.2687 34.9074 13.6435 34.6573 13.1591 34.1102C12.8777 33.7819 12.6121 33.2661 12.5496 32.9691C12.487 32.5939 12.7996 30.7025 13.5029 27.1854Z" fill="#E1E8EF"/>
<path d="M15.894 39.2998C16.0034 38.9559 16.1284 38.5807 16.1753 38.4869C16.2222 38.3306 16.3472 38.3306 16.6754 38.4557C16.9098 38.5495 18.3789 39.0966 19.9261 39.6906C21.4733 40.2689 22.8642 40.8004 23.0049 40.8473C23.255 40.9255 23.2706 40.988 23.0674 41.5194C22.958 41.8477 22.7705 42.6762 22.6611 43.364C22.5361 44.1143 22.4892 45.1147 22.5517 45.865C22.5986 46.5528 22.7549 47.5063 22.8799 47.9752C23.0049 48.4442 23.255 49.2257 23.4269 49.6947C23.5988 50.1636 24.0989 51.1015 24.5365 51.758C24.9584 52.4302 25.7555 53.415 26.2869 53.9308C26.8338 54.4623 27.8341 55.2439 28.5217 55.6503C29.2094 56.0723 30.3033 56.5882 30.9441 56.807C31.5849 57.0102 32.6163 57.2759 33.2102 57.3697C33.851 57.4792 34.8981 57.5104 35.7108 57.4635C36.4765 57.4166 37.508 57.2603 37.9769 57.1353C38.4457 57.0102 39.2271 56.7601 39.696 56.5882C40.1648 56.4162 41.1025 55.916 41.7589 55.4783C42.4309 55.0563 43.3686 54.306 43.8375 53.837C44.3063 53.3681 45.0565 52.4302 45.4785 51.758C45.9161 51.1015 46.4162 50.1636 46.5881 49.6947C46.76 49.2257 47.0257 48.4129 47.1663 47.8971C47.3382 47.2718 47.4164 46.3339 47.4164 45.0834C47.4164 43.8329 47.3382 42.895 47.1663 42.2698C47.0257 41.7539 46.885 41.2381 46.8538 41.1287C46.8225 40.988 47.9477 40.4878 50.2764 39.5968C52.7457 38.6745 53.7771 38.3463 53.8396 38.4713C53.8865 38.5807 54.0115 38.9559 54.3397 39.925L56.3871 40.0032C58.1062 40.0657 58.4969 40.1283 58.8563 40.394C59.0751 40.5659 59.419 40.9098 59.6065 41.1443C59.9191 41.5663 59.9347 41.7696 59.9347 45.0053C59.9347 48.241 59.9191 48.4442 59.6065 48.8662C59.419 49.1007 59.0751 49.4446 58.8563 49.6165C58.4969 49.8823 58.1062 49.9448 54.371 50.0855L53.949 51.336C53.7146 52.0238 53.2458 53.1649 52.2768 55.1657L53.4958 56.3693C54.1522 57.0415 54.8086 57.823 54.9336 58.0888C55.0586 58.3701 55.168 58.8547 55.168 59.1517C55.168 59.4487 55.0586 59.9333 54.9336 60.199C54.8086 60.4804 53.7771 61.6371 52.6362 62.7782C51.4954 63.9037 50.3701 64.9041 50.1201 64.9979C49.8857 65.0917 49.4481 65.1698 49.1511 65.1698C48.8542 65.1698 48.3697 65.0604 48.0884 64.9354C47.8227 64.8103 47.0413 64.1538 45.1503 62.278L44.1032 62.8095C43.5249 63.1065 42.3841 63.5754 40.0867 64.3882L40.0085 66.3891C39.946 67.9366 39.8679 68.4837 39.6491 68.8119C39.5084 69.0464 39.149 69.4059 38.8677 69.6248C38.3676 69.9999 38.3363 69.9999 35.0075 69.9999C31.6786 69.9999 31.6474 69.9999 31.1316 69.6248C30.866 69.4059 30.5065 69.0464 30.3502 68.8119C30.1471 68.4837 30.0689 67.9366 29.9283 64.357L28.7561 63.9818C28.1154 63.7786 26.9745 63.3097 24.849 62.278L23.7238 63.4191C23.0987 64.06 22.3173 64.7009 21.9891 64.8728C21.6765 65.0291 21.1608 65.1698 20.8638 65.1698C20.5669 65.1698 20.1293 65.0917 19.8792 64.9979C19.6448 64.9041 18.5196 63.9037 17.3787 62.7782C16.2378 61.6371 15.2064 60.4804 15.0813 60.199C14.9563 59.9333 14.8469 59.4487 14.8469 59.1517C14.8469 58.8547 14.9563 58.3701 15.0813 58.0888C15.2064 57.823 15.8627 57.0415 17.7382 55.1657L17.0661 53.7901C16.7067 53.0398 16.2378 51.8987 15.6596 50.0855L13.6279 50.0073C11.9088 49.9448 11.5181 49.8823 11.1586 49.6165C10.9398 49.4446 10.596 49.1007 10.4085 48.8662C10.0959 48.4442 10.0803 48.241 10.0803 45.0053C10.0803 41.7696 10.0959 41.5663 10.4085 41.1443C10.596 40.9098 10.9398 40.5659 11.1586 40.394C11.5181 40.1283 11.9088 40.0657 15.6752 39.925L15.894 39.2998Z" fill="#E1E8EF"/>
</svg>
