<svg width="66" height="66" viewBox="0 0 66 66" fill="none" xmlns="http://www.w3.org/2000/svg">
<path fill-rule="evenodd" clip-rule="evenodd" d="M1.35352 0.0257812L34.9336 0V6.96094C34.9336 13.5352 34.9465 13.9477 35.1785 14.4117C35.3203 14.6824 35.6297 15.0047 35.9133 15.1723C36.416 15.4559 36.4289 15.4559 50.4023 15.4688V27.3281H46.432C43.4414 27.3281 42.2555 27.3797 41.5723 27.5215C41.0695 27.6246 40.1801 27.9469 39.5742 28.2434C38.6977 28.6688 38.2723 28.9781 37.4473 29.816C36.7512 30.5207 36.2484 31.1738 35.9391 31.7754C35.6812 32.2652 35.3848 33 35.2816 33.3867C35.1656 33.7734 35.0496 34.3148 34.9336 35.0625H33.6703C32.9871 35.0625 32.1621 35.127 31.8398 35.2043C31.5176 35.2816 30.9375 35.4879 30.5508 35.6812C30.1641 35.8746 29.4937 36.3773 29.0555 36.8027C28.6043 37.2539 28.1402 37.8598 27.6504 38.9297H21.4242C15.4687 38.9297 15.1852 38.9426 14.6953 39.1875C14.3516 39.3594 14.0938 39.6172 13.9219 39.9609C13.7801 40.2445 13.6641 40.657 13.6641 40.8633C13.6641 41.0695 13.7801 41.482 13.9219 41.7656C14.0938 42.1094 14.3516 42.3672 14.6953 42.5391C15.1852 42.784 15.4688 42.7969 27.3281 42.7969V46.5352H21.2695C15.4688 46.5352 15.1852 46.548 14.6953 46.793C14.3516 46.9648 14.0938 47.2227 13.9219 47.5664C13.7801 47.85 13.6641 48.2625 13.6641 48.4688C13.6641 48.675 13.7801 49.0746 13.909 49.3453C14.0508 49.616 14.3602 49.9383 14.6438 50.1059C15.1465 50.3895 15.1852 50.3895 27.3281 50.4023V54.2695H21.2695C15.7652 54.2695 15.1723 54.2953 14.7469 54.5016C14.4762 54.6176 14.1539 54.9012 14.0121 55.1074C13.8703 55.3137 13.7285 55.7262 13.6898 56.0098C13.6512 56.3449 13.7156 56.693 13.8703 57.0281C14.025 57.3246 14.3215 57.6469 15.1465 58.1367H27.3281V59.6191C27.3281 60.4699 27.4184 61.527 27.5344 62.107C27.6504 62.6484 27.8824 63.4477 28.05 63.873C28.2305 64.2984 28.5656 64.9559 29.2617 66H1.41797L0.953906 65.7164C0.696094 65.5488 0.373828 65.2008 0.244922 64.943C0.0128906 64.466 0 63.3832 0 33C0 2.64258 0.0128906 1.53398 0.244922 1.06992C0.373828 0.799219 0.670312 0.451172 0.915234 0.296484L1.35352 0.0257812ZM22.4297 8.58516C22.1074 8.76562 21.5402 9.20391 21.1535 9.57773C20.7023 10.0289 20.3027 10.5832 19.9934 11.2277C19.5938 12.0656 19.5293 12.3492 19.4906 13.3547C19.452 14.1926 19.4906 14.7211 19.6582 15.2883C19.7742 15.7137 20.032 16.3195 20.2254 16.6289C20.4059 16.9512 20.857 17.4926 21.2051 17.8406C21.566 18.1758 22.1977 18.627 22.623 18.8461C23.0484 19.0523 23.5898 19.2457 23.8219 19.2844C24.041 19.323 24.2344 19.4004 24.2344 19.4777C24.2344 19.5422 23.9637 19.6324 23.6285 19.684C23.2805 19.7227 22.6359 19.8902 22.1719 20.0449C21.7078 20.1996 20.9602 20.5348 20.4961 20.7668C19.9289 21.0633 19.2586 21.6047 18.4207 22.4297C17.3379 23.4996 17.1059 23.8219 16.5902 24.8918C16.268 25.5621 15.9199 26.4902 15.8039 26.9543C15.6879 27.4055 15.5977 28.2434 15.5977 28.7848C15.5977 29.5066 15.6621 29.8934 15.8297 30.177C15.9457 30.3961 16.2551 30.7055 16.5 30.8602L16.9512 31.1438H33.4512C34.1473 30.7055 34.4566 30.3961 34.5855 30.177C34.7402 29.8934 34.8047 29.5066 34.8047 28.7848C34.8047 28.2434 34.7145 27.4055 34.5984 26.9543C34.4824 26.4902 34.1344 25.5621 33.8121 24.8918C33.2965 23.8219 33.0516 23.4996 31.9816 22.4297C30.9117 21.3469 30.5766 21.1148 29.5195 20.5992C28.8492 20.277 27.9211 19.916 27.457 19.8129C26.993 19.6969 26.516 19.6066 26.4 19.6066C26.2711 19.6066 26.168 19.5551 26.168 19.5035C26.168 19.452 26.5031 19.3102 26.9156 19.1941C27.3152 19.0781 27.9984 18.743 28.4238 18.4594C28.8492 18.1758 29.3777 17.7246 29.5969 17.4539C29.8289 17.1832 30.1512 16.6676 30.3316 16.3195C30.5121 15.9586 30.7313 15.3785 30.8215 15.0305C30.9117 14.6566 30.9504 13.909 30.9246 13.2902C30.873 12.3492 30.7957 12.0527 30.3961 11.2277C30.1254 10.6477 29.6613 9.99023 29.2875 9.61641C28.9395 9.25547 28.3723 8.81719 28.0242 8.62383C27.6762 8.43047 27.0445 8.18555 26.6191 8.06953C26.1938 7.96641 25.5234 7.87617 25.1367 7.87617C24.75 7.88906 24.1055 7.9793 23.7188 8.08242C23.332 8.18555 22.752 8.41758 22.4297 8.58516ZM8.34023 39.4324C8.14687 39.6258 7.92773 39.9996 7.86328 40.2574C7.78594 40.5668 7.78594 40.9277 7.85039 41.2242C7.92773 41.5078 8.15977 41.8816 8.43047 42.1266C8.68828 42.3586 9.08789 42.5777 9.31992 42.6293C9.53906 42.668 9.91289 42.668 10.1191 42.6164C10.3383 42.5648 10.6605 42.4102 10.8668 42.2812C11.0602 42.1395 11.3051 41.8559 11.4082 41.6496C11.5113 41.4305 11.6016 41.018 11.6016 40.7086C11.6016 40.3477 11.5113 40.0125 11.318 39.7289C11.1504 39.484 10.8152 39.1746 10.5703 39.0457C10.3254 38.9168 9.95156 38.8137 9.73242 38.8137C9.52617 38.8266 9.20391 38.8781 9.02344 38.9555C8.84297 39.0199 8.53359 39.2391 8.34023 39.4324ZM8.34023 47.1668C8.14687 47.3602 7.92773 47.734 7.86328 47.9918C7.78594 48.3012 7.78594 48.6621 7.85039 48.9586C7.92773 49.2422 8.15977 49.616 8.43047 49.8609C8.68828 50.093 9.08789 50.3121 9.31992 50.3637C9.53906 50.4023 9.91289 50.4023 10.1191 50.3508C10.3383 50.2992 10.6605 50.1445 10.8668 50.0156C11.0602 49.8738 11.3051 49.5902 11.4082 49.384C11.5113 49.1648 11.6016 48.7523 11.6016 48.443C11.6016 48.082 11.5113 47.7469 11.318 47.4633C11.1504 47.2184 10.8152 46.909 10.5703 46.7801C10.3254 46.6512 9.95156 46.548 9.73242 46.548C9.52617 46.5609 9.20391 46.6125 9.02344 46.6898C8.84297 46.7543 8.53359 46.9734 8.34023 47.1668ZM8.34023 54.9012C8.14687 55.0945 7.92773 55.4684 7.86328 55.7262C7.78594 55.9969 7.77305 56.3707 7.81172 56.5641C7.86328 56.7574 8.04375 57.1184 8.23711 57.3633C8.41758 57.6082 8.76562 57.8789 8.99766 57.982C9.2168 58.0723 9.56484 58.1496 9.77109 58.1496C9.96445 58.1496 10.3254 58.0336 10.5703 57.9047C10.8152 57.7758 11.1504 57.4664 11.318 57.2344C11.5113 56.9379 11.6145 56.6027 11.6145 56.216C11.6145 55.8293 11.5113 55.4813 11.318 55.1848C11.1504 54.927 10.8152 54.6305 10.5703 54.5016C10.3254 54.3855 9.95156 54.2824 9.73242 54.2824C9.52617 54.2953 9.20391 54.3469 9.02344 54.4242C8.84297 54.4887 8.53359 54.7078 8.34023 54.9012Z" fill="#E1E8EF"/>
<path d="M22.1719 24.2473C22.4941 24.0668 23.0355 23.809 23.3965 23.6801C23.8992 23.5125 24.3504 23.4609 25.3945 23.4996C26.6062 23.5254 26.8383 23.577 27.6117 23.9508C28.1016 24.1699 28.7977 24.6469 29.1715 24.9949C29.5324 25.343 30.0352 25.9617 30.2543 26.3742C30.4863 26.7996 30.641 27.1734 30.5895 27.2379C30.5508 27.2895 28.1273 27.3281 25.2141 27.3281C22.3008 27.3281 19.8773 27.2895 19.8258 27.2379C19.7742 27.1863 19.8902 26.8512 20.0707 26.4902C20.2512 26.1422 20.6766 25.5621 20.9988 25.2141C21.3211 24.8789 21.8496 24.4406 22.1719 24.2473Z" fill="#E1E8EF"/>
<path d="M23.6156 12.6328C23.7832 12.3879 24.1184 12.0785 24.3633 11.9625C24.6082 11.8336 24.982 11.7305 25.2012 11.7305C25.4203 11.7305 25.7941 11.8336 26.0391 11.9625C26.284 12.0785 26.6191 12.3879 26.7867 12.6328C26.9801 12.9293 27.0832 13.2773 27.0832 13.6641C27.0832 14.0508 26.9801 14.3988 26.7867 14.6953C26.6191 14.9402 26.284 15.2496 26.0391 15.3656C25.7941 15.4945 25.4203 15.5977 25.2012 15.5977C24.982 15.5977 24.6082 15.4945 24.3633 15.3656C24.1184 15.2496 23.7832 14.9402 23.6156 14.6953C23.4223 14.3988 23.3191 14.0508 23.3191 13.6641C23.3191 13.2773 23.4223 12.9293 23.6156 12.6328Z" fill="#E1E8EF"/>
<path d="M38.8008 11.6016L38.7879 6.3938L38.775 1.1731L41.9719 4.42153C43.7379 6.21333 46.0453 8.55942 49.0488 11.6016H38.8008Z" fill="#E1E8EF"/>
<path fill-rule="evenodd" clip-rule="evenodd" d="M54.7207 31.26L55.5586 31.6725C56.0355 31.9045 56.6156 32.317 56.8992 32.6393C57.1828 32.9357 57.5566 33.5158 57.7371 33.9025C58.0465 34.56 58.0723 34.7662 58.1367 38.9299H61.2949C64.118 38.9299 64.5047 38.9557 64.943 39.1748C65.2008 39.3037 65.5488 39.626 65.7035 39.8838C66 40.335 66 40.4252 66 48.34L65.5102 48.4045C65.2523 48.4432 61.991 48.8428 58.2656 49.3068C54.5402 49.7709 51.2789 50.1705 51.0082 50.2092C50.5699 50.2736 50.5184 50.2478 50.3637 49.8611C50.2605 49.6291 50.0027 49.281 49.7836 49.0877C49.5516 48.8814 49.2164 48.6881 49.0102 48.6494C48.8168 48.5978 48.4559 48.5978 48.2109 48.6494C47.966 48.6881 47.618 48.8299 47.4375 48.9588C47.257 49.0877 46.9992 49.4228 46.8574 49.7064C46.7156 49.9771 46.5996 50.2221 46.5996 50.235C46.5996 50.2478 43.1449 49.8225 38.9297 49.2939C34.7145 48.7654 31.2469 48.34 31.2211 48.34C31.2082 48.34 31.1953 46.5611 31.1953 44.3826C31.1953 40.7603 31.2211 40.3736 31.4402 39.9611C31.5691 39.7162 31.9043 39.3811 32.175 39.2264C32.652 38.9428 32.8066 38.9299 38.8008 38.9299L38.8266 36.7771C38.8652 34.7533 38.891 34.56 39.2004 33.9025C39.3809 33.5158 39.7289 32.9744 39.9738 32.6908C40.2188 32.4201 40.6699 32.0463 40.9922 31.8658C41.3145 31.6725 41.8043 31.4533 42.0879 31.3631C42.4746 31.2471 44.1117 31.2084 54.7207 31.26ZM42.6551 37.2025L42.668 38.9299H54.2695C54.2695 35.8103 54.2309 35.4107 54.0762 35.2561C53.9086 35.0885 53.1094 35.0627 48.4816 35.0627C43.7379 35.0627 43.0418 35.0885 42.8613 35.2689C42.6809 35.4365 42.6551 35.7588 42.6551 37.2025Z" fill="#E1E8EF"/>
<path d="M31.3371 61.4882C31.2598 61.1402 31.2082 59.155 31.2082 56.5511V52.1941L31.6207 52.2714C31.8527 52.3101 35.2945 52.7484 39.2906 53.2382C43.2738 53.741 46.5609 54.1406 46.5996 54.1406C46.6383 54.1406 46.6641 54.2824 46.6641 54.4628C46.6641 54.6433 46.7414 54.9785 46.8316 55.2105C46.9219 55.4296 47.1797 55.7519 47.3859 55.9066C47.5922 56.0613 47.966 56.2289 48.2109 56.2804C48.4558 56.332 48.8683 56.3062 49.1133 56.2289C49.3582 56.1515 49.7578 55.8808 49.9898 55.6359C50.2348 55.3652 50.441 54.9656 50.5055 54.6562C50.557 54.3726 50.6344 54.1406 50.6988 54.1406C50.7504 54.1406 54.0504 53.7281 58.0465 53.2382C62.0297 52.7355 65.4457 52.3101 66 52.207V56.6929C66 60.3152 65.9613 61.2691 65.8066 61.7203C65.7035 62.0167 65.4715 62.5582 65.291 62.9062C65.1105 63.2671 64.7496 63.7957 64.4918 64.0921C64.2211 64.3886 63.7183 64.814 63.3574 65.0332C63.0094 65.2652 62.3648 65.5746 61.9394 65.7164C61.166 66 61.1016 66 36.0293 66L35.1914 65.7035C34.7273 65.5359 34.0957 65.2265 33.7734 65.0074C33.4512 64.8011 32.9484 64.3371 32.6391 63.989C32.3297 63.641 31.943 63.0738 31.7754 62.7128C31.6078 62.3648 31.4144 61.8105 31.3371 61.4882Z" fill="#E1E8EF"/>
</svg>
