<svg width="50" height="50" viewBox="0 0 50 50" fill="none" xmlns="http://www.w3.org/2000/svg">
<g id="map">
<g id="Group">
<g id="Vector">
<path d="M36.0059 29.0493C36.4844 28.2386 37.002 27.3498 37.1582 27.0763L37.4316 26.5586H38.8086C40 26.5684 40.2246 26.5879 40.5078 26.7539C40.6738 26.8614 40.8789 27.0665 40.957 27.213C41.0352 27.3693 42.1289 29.899 43.3984 32.8585C44.6582 35.8082 45.6934 38.2402 45.6738 38.25C45.6641 38.2598 41.4355 40.4476 36.2793 43.1239C31.123 45.8001 26.8359 47.9977 26.7578 48.0173C26.6699 48.0368 24.6582 46.1029 21.6309 43.075C18.8867 40.3304 16.6699 38.0742 16.6992 38.0547C16.7285 38.0351 17.3047 37.7226 17.998 37.371C18.6816 37.0096 19.248 36.7263 19.2676 36.7361C19.2871 36.7556 19.7363 37.3124 20.2734 37.9863C20.8008 38.6505 21.5039 39.4709 21.8262 39.803C22.2168 40.2035 22.627 40.516 23.0469 40.7114C23.3984 40.8774 23.9648 41.063 24.3164 41.1314C24.7949 41.2095 25.1172 41.2095 25.6348 41.1216C26.0156 41.063 26.5625 40.8969 26.8555 40.7602C27.1484 40.6235 27.5684 40.3695 27.7734 40.2035C27.9883 40.0277 28.6133 39.3439 29.1797 38.67C29.7363 37.9961 30.752 36.7068 31.4355 35.7887C32.1289 34.8705 33.2324 33.3175 33.9062 32.3213C34.5801 31.325 35.5273 29.8502 36.0059 29.0493Z" fill="url(#paint0_linear_49_37)"/>
<path d="M8.98438 27.34C9.07227 27.1544 9.29688 26.9004 9.48242 26.7832C9.78516 26.5781 9.93164 26.5586 12.5488 26.5488L12.832 27.0665C12.9883 27.3497 13.5156 28.2386 13.9941 29.0492C14.4727 29.8502 15.4492 31.3739 17.4316 34.3431L10.1563 38.0644C6.15235 40.1156 2.86133 41.7662 2.83203 41.7467C2.80274 41.7174 4.14063 38.543 5.80078 34.6947C7.46094 30.8367 8.88672 27.5256 8.98438 27.34Z" fill="url(#paint1_linear_49_37)"/>
<path d="M0.927734 46.0833L13.8184 39.4806L18.8281 44.4717C21.5723 47.2163 23.8281 49.4823 23.8281 49.5116C23.8281 49.5409 23.6523 49.6581 23.0469 50H1.07422L0.722656 49.7753C0.527344 49.6581 0.283203 49.3944 0.185547 49.1893C0.078125 48.994 0 48.6814 0 48.5056C0 48.3395 0.214844 47.7144 0.927734 46.0833Z" fill="url(#paint2_linear_49_37)"/>
<path d="M29.6289 49.9316C29.668 49.8828 33.5449 47.8512 38.252 45.4094C46.4551 41.1313 46.8066 40.9653 46.9238 41.1606C46.9922 41.2681 47.7051 42.8895 48.5254 44.7745C49.3945 46.8061 50 48.3201 50 48.5154C50 48.6814 49.9219 48.994 49.8145 49.1991C49.7168 49.3944 49.4727 49.6582 48.9258 50H39.2383C33.916 50 29.5898 49.9707 29.6289 49.9316Z" fill="url(#paint3_linear_49_37)"/>
</g>
<path id="Vector_2" fill-rule="evenodd" clip-rule="evenodd" d="M24.8535 0.00137226C26.0645 -0.008395 26.5137 0.030674 27.4414 0.226019C28.0566 0.362761 28.9648 0.606942 29.4434 0.772986C29.9219 0.948797 30.625 1.24181 31.0059 1.43716C31.3867 1.62274 32.0215 1.99389 32.4219 2.26738C32.8223 2.54086 33.5449 3.13666 34.0234 3.59572C34.502 4.05479 35.1367 4.7678 35.4395 5.16825C35.7422 5.56871 36.2402 6.38916 36.543 6.9752C36.8457 7.56123 37.2266 8.46959 37.3926 8.97748C37.5684 9.48538 37.793 10.3449 37.9004 10.8821C38.0078 11.4193 38.1348 12.4253 38.1738 13.1286C38.2129 13.8318 38.2129 14.8378 38.1641 15.375C38.125 15.9122 37.998 16.7913 37.8906 17.3285C37.7734 17.8657 37.4805 18.8913 37.2461 19.6043C37.0117 20.3075 36.5527 21.4991 36.2305 22.2317C35.9082 22.974 35.2832 24.2437 34.8438 25.0446C34.4141 25.8553 33.7891 26.9492 33.4668 27.4864C33.1445 28.0236 32.4316 29.1469 31.8848 29.9771C31.3281 30.8073 30.4102 32.1259 29.8438 32.9073C29.2773 33.6887 28.2715 34.9975 27.6172 35.8277C26.9531 36.6481 26.2305 37.4979 25.9961 37.703C25.7715 37.9179 25.4395 38.1132 25.2637 38.1425C25.0977 38.1718 24.7949 38.1523 24.6094 38.1035C24.4238 38.0448 24.1406 37.869 23.9844 37.7225C23.8379 37.576 23.3496 37.0095 22.9102 36.4723C22.4609 35.9351 21.6895 34.9486 21.1719 34.2747C20.6641 33.6007 19.7461 32.3505 19.1406 31.491C18.5449 30.6315 17.5977 29.2055 17.0508 28.3167C16.4941 27.4278 15.6836 26.0507 15.2441 25.24C14.8145 24.4391 14.1699 23.1302 13.8184 22.3391C13.4668 21.5382 12.9883 20.3075 12.7539 19.6043C12.5195 18.8913 12.2266 17.8657 12.1094 17.3285C12.002 16.7913 11.875 15.9122 11.8359 15.375C11.7871 14.8378 11.7871 13.8318 11.8359 13.1286C11.875 12.4253 11.9922 11.4193 12.0898 10.8821C12.1973 10.3449 12.4414 9.41701 12.6367 8.83098C12.8418 8.24494 13.2227 7.33658 13.4863 6.82869C13.75 6.32079 14.248 5.52964 14.5898 5.07058C14.9316 4.61152 15.5762 3.89851 16.0254 3.46875C16.4746 3.04876 17.1973 2.47249 17.627 2.17947C18.0566 1.89622 18.7793 1.486 19.2383 1.27112C19.6973 1.066 20.3516 0.79252 20.7031 0.675313C21.0547 0.558106 21.7969 0.352994 22.3633 0.235787C23.1543 0.0697431 23.7305 0.0111395 24.8535 0.00137226ZM22.9297 9.32911C22.6465 9.47562 22.168 9.837 21.875 10.1398C21.5723 10.4426 21.2207 10.9309 21.0742 11.224C20.9277 11.517 20.7715 11.9565 20.7129 12.2007C20.6543 12.4449 20.6055 12.9039 20.6055 13.2262C20.6055 13.5486 20.6934 14.0955 20.791 14.4472C20.8984 14.7988 21.1133 15.2774 21.2695 15.5215C21.416 15.7657 21.7383 16.1467 21.9824 16.3811C22.2168 16.6155 22.7441 16.9671 23.1348 17.1624C23.8477 17.5141 23.8867 17.5238 25 17.5238C26.1133 17.5238 26.1523 17.5141 26.8652 17.1624C27.2559 16.9671 27.7832 16.6155 28.0176 16.3811C28.2617 16.1467 28.584 15.7657 28.7305 15.5215C28.8867 15.2774 29.1016 14.7988 29.209 14.4472C29.3066 14.0955 29.3945 13.5486 29.3945 13.2262C29.3945 12.9039 29.3457 12.4449 29.2871 12.2007C29.2285 11.9565 29.0625 11.5267 28.9258 11.2337C28.7793 10.9505 28.4668 10.5012 28.2227 10.2375C27.9785 9.97375 27.5195 9.60259 27.1973 9.41701C26.875 9.23143 26.3184 9.00679 25.9473 8.92865C25.5859 8.85051 25.127 8.78214 24.9219 8.79191C24.7266 8.79191 24.3066 8.86028 23.9941 8.93842C23.6914 9.01655 23.2031 9.19236 22.9199 9.32911H22.9297Z" fill="url(#paint4_linear_49_37)"/>
<path id="Vector_3" d="M21.7333 9.29491C22.1333 8.85628 22.9333 8.38391 23.5 8.21521C24.0667 8.01276 25.0333 7.94528 25.6667 8.0465C26.3 8.14773 27.2 8.48513 27.6667 8.82254C28.1333 9.15995 28.8333 9.93598 29.2667 10.5771C29.7 11.2519 30 12.2303 30 12.9052C30 13.5462 29.7333 14.6259 29.4 15.267C29.1 15.9081 28.3 16.7853 27.6667 17.224C26.9 17.7301 26 18 25 18C24 18 23.1 17.7301 22.3333 17.224C21.7 16.7853 20.9 15.9081 20.6 15.267C20.2667 14.6259 20 13.58 20 13.0064C20 12.3991 20.2 11.4881 20.4667 10.9819C20.7333 10.4421 21.3 9.6998 21.7333 9.29491Z" fill="white"/>
</g>
</g>
<defs>
<linearGradient id="paint0_linear_49_37" x1="50" y1="38.2744" x2="0" y2="38.2744" gradientUnits="userSpaceOnUse">
<stop stop-color="#50BEFC"/>
<stop offset="1" stop-color="#5088FC"/>
</linearGradient>
<linearGradient id="paint1_linear_49_37" x1="50" y1="38.2744" x2="0" y2="38.2744" gradientUnits="userSpaceOnUse">
<stop stop-color="#50BEFC"/>
<stop offset="1" stop-color="#5088FC"/>
</linearGradient>
<linearGradient id="paint2_linear_49_37" x1="50" y1="38.2744" x2="0" y2="38.2744" gradientUnits="userSpaceOnUse">
<stop stop-color="#50BEFC"/>
<stop offset="1" stop-color="#5088FC"/>
</linearGradient>
<linearGradient id="paint3_linear_49_37" x1="50" y1="38.2744" x2="0" y2="38.2744" gradientUnits="userSpaceOnUse">
<stop stop-color="#50BEFC"/>
<stop offset="1" stop-color="#5088FC"/>
</linearGradient>
<linearGradient id="paint4_linear_49_37" x1="38.202" y1="19.0781" x2="11.7993" y2="19.0781" gradientUnits="userSpaceOnUse">
<stop stop-color="#4070D1"/>
<stop offset="1" stop-color="#01407F"/>
</linearGradient>
</defs>
</svg>
