<svg width="50" height="50" viewBox="0 0 50 50" fill="none" xmlns="http://www.w3.org/2000/svg">
<g clip-path="url(#clip0_17_115)">
<path d="M37.16 34.616C36.321 35.522 34.983 35.554 34.106 34.72C34.878 35.668 34.846 37.113 34.009 38.017C33.17 38.923 31.832 38.957 30.952 38.124C31.726 39.072 31.695 40.515 30.855 41.421C30.016 42.325 28.679 42.359 27.801 41.525C28.573 42.473 28.542 43.916 27.704 44.822C27.097 45.477 26.228 45.677 25.461 45.421C25.125 45.308 24.807 45.11 24.54 44.822L24.533 44.814L10.232 29.378L9.46201 28.547L3.80701 22.443L14.497 10.906L18.572 11.435L20.34 11.665L23.158 12.031L27.69 12.619L29.666 21.388L29.513 22.951L36.366 30.348L37.159 31.205C38.034 32.147 38.034 33.674 37.16 34.616Z" fill="url(#paint0_linear_17_115)"/>
<path d="M35.003 9.26508L30.84 9.05909L27.841 8.91107C26.834 8.86107 25.854 9.27107 25.141 10.0401L23.956 11.3201L17.567 18.2151C16.69 19.1611 16.69 20.6951 17.567 21.6421C18.444 22.5881 19.865 22.5881 20.742 21.6421L23.047 19.1551H29.101L29.644 21.5641L29.491 23.1271L36.344 30.5241L36.503 30.3521L37.922 28.8221L43.536 22.7621L45.522 20.6181L35.003 9.26508Z" fill="url(#paint1_linear_17_115)"/>
<path d="M23.321 41.068C22.495 40.177 21.188 40.142 20.313 40.942C21.054 39.997 21.022 38.587 20.196 37.696L20.146 37.642C19.32 36.751 18.013 36.716 17.138 37.516C17.879 36.571 17.847 35.16 17.021 34.269L16.971 34.215C16.145 33.324 14.839 33.289 13.963 34.089C14.704 33.144 14.671 31.734 13.846 30.843L13.796 30.789C12.926 29.85 11.515 29.85 10.645 30.789C9.77499 31.728 9.77499 33.251 10.645 34.19L10.695 34.244C11.521 35.135 12.827 35.17 13.703 34.37C12.962 35.315 12.995 36.725 13.82 37.616L13.87 37.67C14.696 38.561 16.003 38.596 16.878 37.796C16.137 38.741 16.169 40.152 16.995 41.043L17.045 41.097C17.871 41.988 19.178 42.023 20.053 41.223C19.312 42.168 19.344 43.578 20.17 44.469L20.22 44.523C21.09 45.462 22.501 45.462 23.371 44.523C24.241 43.584 24.241 42.061 23.371 41.122L23.321 41.068Z" fill="url(#paint2_linear_17_115)"/>
<path d="M49.66 16.2119L39.122 4.83794C38.669 4.34894 37.934 4.34894 37.481 4.83794L34.896 7.62795C34.443 8.11695 34.443 8.90995 34.896 9.39895L45.434 20.7729C45.887 21.2619 46.622 21.2619 47.075 20.7729L49.66 17.9829C50.113 17.4949 50.113 16.7019 49.66 16.2119ZM46.753 17.445C46.603 17.607 46.405 17.6889 46.208 17.6889C46.011 17.6889 45.813 17.608 45.663 17.445L45.171 16.9139C44.87 16.5889 44.87 16.062 45.171 15.738C45.472 15.413 45.96 15.413 46.261 15.738L46.753 16.2689C47.054 16.5929 47.054 17.12 46.753 17.445Z" fill="url(#paint3_linear_17_115)"/>
<path d="M15.567 9.65998L12.903 6.78498C12.436 6.28098 11.678 6.28098 11.211 6.78498L0.350006 18.507C-0.116994 19.011 -0.116994 19.829 0.350006 20.333L3.01401 23.208C3.48101 23.712 4.23799 23.712 4.70599 23.208L15.567 11.486C16.034 10.981 16.034 10.164 15.567 9.65998ZM4.97701 19.229L4.47 19.777C4.315 19.944 4.112 20.028 3.908 20.028C3.705 20.028 3.50099 19.944 3.34599 19.777C3.03599 19.442 3.03599 18.899 3.34599 18.564L3.853 18.016C4.163 17.681 4.66601 17.681 4.97701 18.016C5.287 18.351 5.287 18.894 4.97701 19.229Z" fill="url(#paint4_linear_17_115)"/>
</g>
<defs>
<linearGradient id="paint0_linear_17_115" x1="3.80881" y1="28.2163" x2="37.8157" y2="28.2163" gradientUnits="userSpaceOnUse">
<stop stop-color="#003F7E"/>
<stop offset="0.9906" stop-color="#3F6FD1"/>
</linearGradient>
<linearGradient id="paint1_linear_17_115" x1="16.9103" y1="19.7155" x2="45.5226" y2="19.7155" gradientUnits="userSpaceOnUse">
<stop stop-color="#4F87FB"/>
<stop offset="1" stop-color="#4FBEFB"/>
</linearGradient>
<linearGradient id="paint2_linear_17_115" x1="9.99229" y1="37.6554" x2="24.0243" y2="37.6554" gradientUnits="userSpaceOnUse">
<stop stop-color="#4F87FB"/>
<stop offset="1" stop-color="#4FBEFB"/>
</linearGradient>
<linearGradient id="paint3_linear_17_115" x1="34.5557" y1="12.8063" x2="50" y2="12.8063" gradientUnits="userSpaceOnUse">
<stop stop-color="#4F87FB"/>
<stop offset="1" stop-color="#4FBEFB"/>
</linearGradient>
<linearGradient id="paint4_linear_17_115" x1="5.85929e-06" y1="14.9957" x2="15.917" y2="14.9957" gradientUnits="userSpaceOnUse">
<stop stop-color="#003F7E"/>
<stop offset="0.9906" stop-color="#3F6FD1"/>
</linearGradient>
<clipPath id="clip0_17_115">
<rect width="50" height="50" fill="white"/>
</clipPath>
</defs>
</svg>
