<svg width="50" height="50" viewBox="0 0 50 50" fill="none" xmlns="http://www.w3.org/2000/svg">
<path d="M11.131 15.637C13.074 15.637 14.755 14.94 16.129 13.566C17.503 12.192 18.2 10.51 18.2 8.568C18.2 6.626 17.503 4.944 16.129 3.57C14.755 2.197 13.073 1.5 11.131 1.5C9.18801 1.5 7.50701 2.196 6.13301 3.57C4.75901 4.944 4.06201 6.625 4.06201 8.568C4.06201 10.511 4.75901 12.192 6.13301 13.566C7.50801 14.941 9.18901 15.637 11.131 15.637Z" fill="url(#paint0_linear_17_143)"/>
<path d="M22.301 22.7839C22.194 22.1869 22.055 21.6199 21.888 21.0979C21.706 20.5289 21.459 19.9689 21.155 19.4329C20.823 18.8479 20.427 18.3349 19.98 17.9059C19.486 17.4329 18.889 17.0559 18.204 16.7849C17.525 16.5159 16.782 16.3799 15.995 16.3799C15.334 16.3799 14.817 16.6809 14.343 16.9899C14.059 17.1759 13.737 17.3829 13.38 17.6119C13.23 17.7079 12.942 17.8569 12.421 18.0249C11.649 18.2749 10.917 18.2749 10.143 18.0249C9.623 17.8569 9.335 17.7079 9.185 17.6119C8.827 17.3829 8.505 17.1759 8.219 16.9889C7.746 16.6809 7.228 16.3799 6.568 16.3799C5.781 16.3799 5.037 16.5169 4.359 16.7849C3.675 17.0559 3.078 17.4329 2.582 17.9069C2.135 18.3349 1.741 18.8479 1.409 19.4329C1.105 19.9679 0.857999 20.5279 0.675999 21.0979C0.508999 21.6189 0.37 22.1869 0.263 22.7839C0.158 23.3669 0.0869987 23.9219 0.0509987 24.4359C0.0179987 24.9219 0 25.4279 0 25.9369C0 27.9549 0.861999 29.2009 1.586 29.8899C2.61 30.8649 3.936 31.3599 5.527 31.3599H17.035C18.626 31.3599 19.952 30.8649 20.977 29.8899C21.701 29.2009 22.563 27.9569 22.563 25.9369C22.563 25.4249 22.545 24.9199 22.512 24.4349C22.477 23.9219 22.406 23.3669 22.301 22.7839Z" fill="url(#paint1_linear_17_143)"/>
<path d="M31.499 8.56898C31.499 10.512 32.195 12.193 33.57 13.567C34.945 14.941 36.626 15.638 38.568 15.638C40.51 15.638 42.192 14.941 43.566 13.567C44.94 12.193 45.636 10.511 45.636 8.56898C45.636 6.62698 44.94 4.94498 43.565 3.57098C42.191 2.19798 40.51 1.50098 38.567 1.50098C36.625 1.50098 34.943 2.19698 33.57 3.57098C32.195 4.94498 31.499 6.62698 31.499 8.56898Z" fill="url(#paint2_linear_17_143)"/>
<path d="M49.948 24.4339C49.912 23.9219 49.842 23.3669 49.737 22.7829C49.63 22.1859 49.491 21.6189 49.323 21.0969C49.141 20.5279 48.895 19.9679 48.59 19.4319C48.258 18.8469 47.863 18.3339 47.415 17.9049C46.921 17.4319 46.323 17.0549 45.639 16.7839C44.96 16.5149 44.217 16.3789 43.43 16.3789C42.769 16.3789 42.252 16.6799 41.778 16.9889C41.493 17.1749 41.172 17.3819 40.815 17.6109C40.665 17.7069 40.376 17.8559 39.856 18.0239C39.083 18.2739 38.352 18.2739 37.578 18.0239C37.058 17.8559 36.77 17.7069 36.621 17.6109C36.263 17.3819 35.941 17.1749 35.655 16.9879C35.182 16.6799 34.664 16.3789 34.004 16.3789C33.216 16.3789 32.473 16.5159 31.795 16.7839C31.111 17.0549 30.514 17.4319 30.018 17.9059C29.571 18.3339 29.176 18.8469 28.844 19.4319C28.54 19.9669 28.293 20.5269 28.111 21.0969C27.944 21.6179 27.805 22.1859 27.698 22.7829C27.593 23.3659 27.522 23.9209 27.486 24.4349C27.452 24.9219 27.435 25.4279 27.435 25.9369C27.435 27.9549 28.297 29.2009 29.021 29.8899C30.045 30.8649 31.371 31.3599 32.962 31.3599H44.47C46.061 31.3599 47.387 30.8649 48.412 29.8899C49.137 29.2009 50 27.9569 50 25.9369C50 25.4249 49.982 24.9199 49.948 24.4339Z" fill="url(#paint3_linear_17_143)"/>
<path d="M31.918 25.7069C31.918 27.6499 31.222 29.3299 29.848 30.7049C28.473 32.0789 26.792 32.7749 24.85 32.7749C22.908 32.7749 21.226 32.0789 19.853 30.7049C18.479 29.3319 17.782 27.6489 17.782 25.7069C17.782 23.7649 18.479 22.0829 19.853 20.7099C21.226 19.3359 22.908 18.6399 24.85 18.6399C26.792 18.6399 28.473 19.3359 29.847 20.7099C31.222 22.0829 31.918 23.7659 31.918 25.7069Z" fill="url(#paint4_linear_17_143)"/>
<path d="M36.282 43.075C36.282 45.096 35.42 46.341 34.697 47.029C33.672 48.004 32.345 48.499 30.754 48.499H19.247C17.656 48.499 16.329 48.004 15.304 47.029C14.581 46.339 13.718 45.094 13.718 43.077C13.718 42.567 13.736 42.061 13.769 41.574C13.804 41.06 13.875 40.505 13.979 39.923C14.086 39.326 14.226 38.758 14.392 38.237C14.574 37.667 14.821 37.107 15.126 36.572C15.457 35.988 15.853 35.475 16.299 35.047C16.794 34.573 17.391 34.195 18.076 33.925C18.755 33.655 19.498 33.52 20.286 33.52C20.946 33.52 21.464 33.821 21.937 34.129C22.222 34.315 22.543 34.522 22.903 34.752C23.052 34.847 23.341 34.998 23.86 35.165C24.194 35.272 24.521 35.336 24.849 35.349C25.275 35.368 25.701 35.308 26.138 35.165C26.658 34.997 26.947 34.847 27.097 34.752C27.454 34.523 27.776 34.316 28.06 34.131C28.534 33.821 29.052 33.52 29.713 33.52C30.499 33.52 31.242 33.656 31.921 33.924C32.605 34.196 33.204 34.573 33.698 35.046C34.146 35.475 34.54 35.988 34.873 36.573C35.178 37.108 35.424 37.669 35.606 38.238C35.774 38.76 35.913 39.327 36.019 39.924C36.124 40.508 36.195 41.063 36.231 41.574C36.265 42.058 36.282 42.564 36.282 43.075Z" fill="url(#paint5_linear_17_143)"/>
<defs>
<linearGradient id="paint0_linear_17_143" x1="4.06281" y1="8.5692" x2="18.1998" y2="8.5692" gradientUnits="userSpaceOnUse">
<stop stop-color="#003F7E"/>
<stop offset="0.9906" stop-color="#3F6FD1"/>
</linearGradient>
<linearGradient id="paint1_linear_17_143" x1="0.0002" y1="23.8696" x2="22.564" y2="23.8696" gradientUnits="userSpaceOnUse">
<stop stop-color="#003F7E"/>
<stop offset="0.9906" stop-color="#3F6FD1"/>
</linearGradient>
<linearGradient id="paint2_linear_17_143" x1="31.499" y1="8.56918" x2="45.6356" y2="8.56918" gradientUnits="userSpaceOnUse">
<stop stop-color="#003F7E"/>
<stop offset="0.9906" stop-color="#3F6FD1"/>
</linearGradient>
<linearGradient id="paint3_linear_17_143" x1="27.4365" y1="23.8696" x2="50.0002" y2="23.8696" gradientUnits="userSpaceOnUse">
<stop stop-color="#003F7E"/>
<stop offset="0.9906" stop-color="#3F6FD1"/>
</linearGradient>
<linearGradient id="paint4_linear_17_143" x1="17.7806" y1="25.7077" x2="31.9181" y2="25.7077" gradientUnits="userSpaceOnUse">
<stop stop-color="#4F87FB"/>
<stop offset="1" stop-color="#4FBEFB"/>
</linearGradient>
<linearGradient id="paint5_linear_17_143" x1="13.7179" y1="41.009" x2="36.2819" y2="41.009" gradientUnits="userSpaceOnUse">
<stop stop-color="#4F87FB"/>
<stop offset="1" stop-color="#4FBEFB"/>
</linearGradient>
</defs>
</svg>
