<svg width="173" height="40" viewBox="0 0 173 40" xmlns="http://www.w3.org/2000/svg">
<g id="LOGO-MASTERWEB-v8 2" clip-path="url(#clip0_62_1091)">
<g id="Group">
<path id="Vector" fill-rule="evenodd" clip-rule="evenodd" d="M0 15.0476C0.0961111 12.4762 0.768889 10.0952 1.92222 7.99999C2.78722 6.76189 3.84444 5.33332 5.67056 4.38094C7.49667 3.5238 9.70722 3.04761 12.3983 3.04761C14.8972 3.04761 17.2039 3.42856 19.2222 4.2857C21.2406 5.14285 22.8744 6.47618 23.9317 8.2857C24.9889 10.0952 25.5656 12.1905 25.5656 14.6667C25.5656 17.0476 24.9889 19.2381 23.9317 21.3333C22.8744 23.4286 21.3367 25.0476 19.3183 26.0952C17.3 27.2381 15.1856 27.8095 12.7828 27.8095C10.6683 27.8095 8.74611 27.3333 7.01611 26.4762C5.28611 25.619 3.94056 24.3809 3.07556 22.9524C2.21056 21.5238 1.73 19.9048 1.73 18.1905C1.73 16.7619 2.11444 15.3333 2.78722 14C3.46 12.6667 4.42111 11.5238 5.57444 10.7619C6.72778 9.90475 7.97722 9.04761 7.68889 10.8571L5.67056 20.5714H8.36167L9.32278 16C9.515 15.2381 9.61111 14.6667 9.70722 14.4762C9.89944 14 10.0917 13.619 10.2839 13.3333C10.4761 13.0476 10.7644 12.7619 11.1489 12.5714C11.4372 12.3809 11.7256 12.2857 12.0139 12.2857C12.3022 12.2857 12.5906 12.3809 12.7828 12.5714C12.975 12.7619 13.0711 12.9524 13.0711 13.2381C13.0711 13.4286 12.975 13.9048 12.8789 14.5714L11.5333 20.5714H14.2244L15.1856 16.0952C15.4739 14.8571 15.7622 13.9048 16.1467 13.4286C16.6272 12.7619 17.3 12.3809 17.9728 12.3809C18.2611 12.3809 18.5494 12.4762 18.7417 12.6667C18.9339 12.8571 19.03 13.0476 19.03 13.3333C19.03 13.4286 18.9339 13.9048 18.8378 14.6667L17.5883 20.7619H20.1833L21.4328 14.6667C21.625 13.8095 21.7211 13.2381 21.7211 12.8571C21.7211 12.1905 21.5289 11.619 21.0483 11.1428C20.5678 10.6667 19.9911 10.4762 19.2222 10.4762C18.5494 10.4762 17.8767 10.6667 17.2039 10.9524C16.5311 11.3333 16.0506 11.7143 15.7622 12.1905C15.6661 11.619 15.3778 11.2381 14.9933 10.8571C14.6089 10.5714 14.0322 10.3809 13.2633 10.3809C12.2061 10.3809 11.1489 10.8571 10.0917 11.8095L10.2839 10.8571V10.7619C11.5333 4.66666 4.90167 7.90475 2.69111 10.2857C1.34556 11.9048 0.480556 13.4286 0 15.0476Z" />
<path id="Vector_2" fill-rule="evenodd" clip-rule="evenodd" d="M15.57 0.0952148C24.1239 0.0952148 31.14 6.95236 31.14 15.4285C31.14 23.9047 24.22 30.7619 15.57 30.7619C14.0323 30.7619 12.5906 30.5714 11.1489 30.0952C11.6295 30.0952 12.11 30.1905 12.6867 30.1905C15.9545 30.1905 18.7417 29.4285 21.0484 28C23.355 26.5714 25.085 24.4762 26.3345 21.7143C27.3917 19.4285 27.8723 17.1428 27.8723 14.6666C27.8723 12.4762 27.4878 10.3809 26.6228 8.47617C25.95 6.95236 24.8928 5.61902 23.5473 4.47617C22.2017 3.33331 20.5678 2.47617 18.6456 1.90474C16.7234 1.33331 14.6089 1.0476 12.3984 1.0476C11.6295 1.0476 10.9567 1.0476 10.2839 1.14283C11.9178 0.380929 13.6478 0.0952148 15.57 0.0952148Z" />
</g>
<g id="Group_2">
<path id="Vector_3" d="M58.5316 22.2858H56.0327V14.1905C56.0327 13.4286 55.9366 12.8572 55.8405 12.4763C55.6483 11.8096 55.2638 11.3334 54.6872 11.0477C54.3027 10.8572 53.9183 10.762 53.4377 10.762C52.9572 10.762 52.4766 10.8572 52.0922 11.1429C51.5155 11.4286 51.2272 11.9048 51.0349 12.381C50.8427 12.8572 50.7466 13.5239 50.7466 14.2858V14.762V22.2858H48.2477V14.762V14.2858C48.2477 13.5239 48.1516 12.9524 48.0555 12.5715C47.8633 12.0001 47.4788 11.5239 46.9022 11.1429C46.5177 10.9524 46.1333 10.762 45.6527 10.762C45.1722 10.762 44.6916 10.8572 44.4033 11.0477C43.8266 11.3334 43.4422 11.8096 43.2499 12.4763C43.1538 12.8572 43.0577 13.4286 43.0577 14.1905V22.2858H40.5588V14.381C40.5588 13.0477 40.6549 12.0953 40.9433 11.4286C41.2316 10.4763 41.9044 9.61911 42.8655 9.04768C43.7305 8.57149 44.5955 8.28578 45.4605 8.28578C45.6527 8.28578 45.8449 8.28578 46.1333 8.28578C46.4216 8.28578 46.7099 8.38102 47.0944 8.47625C48.0555 8.76197 48.9205 9.3334 49.4972 10.1905C50.0738 9.3334 50.9388 8.76197 51.8999 8.47625C52.3805 8.28578 52.9572 8.28578 53.4377 8.28578C54.3988 8.28578 55.2638 8.47625 56.0327 8.95244C56.9938 9.52387 57.6666 10.2858 58.0511 11.2382C58.2433 11.9048 58.4355 12.8572 58.4355 14.1905V22.2858H58.5316ZM74.9666 22.2858H72.4677V16.1905C72.4677 14.1905 71.8911 12.6667 70.8338 11.7143C70.0649 11.0477 69.0077 10.762 67.7583 10.762C66.4127 10.762 65.2594 11.1429 64.3944 12.0001C63.5294 12.8572 63.0488 14.0001 63.0488 15.4286C63.0488 16.9524 63.6255 18.1905 64.6827 19.0477C65.5477 19.7143 66.6049 20.0953 67.8544 20.0953C68.5272 20.0953 69.1999 20.0001 69.7766 19.7144C70.3533 19.4286 70.9299 19.0477 71.5066 18.5715V21.1429C70.3533 22.0001 69.1038 22.4763 67.5661 22.4763C65.6438 22.4763 63.9138 21.8096 62.5683 20.5715C61.2227 19.3334 60.5499 17.6191 60.5499 15.6191C60.5499 13.4286 61.2227 11.7143 62.6644 10.381C64.1061 9.04768 65.8361 8.38102 67.8544 8.38102C69.8727 8.38102 71.5066 8.95244 72.7561 10.1905C74.2938 11.6191 74.9666 13.6191 74.9666 16.2858V22.2858ZM88.1338 18.4763C88.1338 18.8572 88.0377 19.3334 87.9416 19.7144C87.8455 20.0953 87.6533 20.4763 87.4611 20.762C86.9805 21.4286 86.3077 21.9048 85.5388 22.0953C85.0583 22.2858 84.3855 22.2858 83.5205 22.2858H76.7927V19.9048H83.4244C84.0972 19.9048 84.4816 19.9048 84.6738 19.8096C85.2505 19.6191 85.5388 19.3334 85.5388 18.762C85.5388 18.381 85.3466 18.0001 85.0583 17.7143C84.8661 17.5239 84.4816 17.3334 84.0011 17.1429C82.7516 16.762 81.5022 16.381 80.2527 16.0001C78.9072 15.5239 78.0422 14.9524 77.5616 14.381C77.0811 13.8096 76.8888 13.0477 76.8888 12.381C76.8888 12.0001 76.8888 11.7143 76.9849 11.3334C77.0811 10.9524 77.1772 10.6667 77.4655 10.2858C77.9461 9.61911 78.6188 9.14292 79.4838 8.95244C80.0605 8.76197 80.7333 8.76197 81.6944 8.76197H87.4611V11.1429H81.0216C80.5411 11.1429 80.1566 11.2382 79.8683 11.4286C79.5799 11.6191 79.4838 11.9048 79.4838 12.1905C79.4838 12.5715 79.6761 12.9524 79.9644 13.1429C80.1566 13.3334 80.5411 13.4286 80.9255 13.6191C82.1749 14.0001 83.4244 14.381 84.5777 14.762C85.9233 15.2382 86.7883 15.8096 87.3649 16.4763C87.8455 17.0477 88.1338 17.7143 88.1338 18.4763ZM97.4566 22.2858H94.3811C93.3238 22.2858 92.4588 22.0953 91.7861 21.7143C90.6327 20.9524 90.0561 19.6191 90.0561 17.7143V5.23816H92.555V8.66673H97.4566V11.0477H92.555V17.5239C92.555 18.4763 92.6511 19.0477 92.7472 19.2382C93.0355 19.7144 93.7083 19.9048 94.8616 19.9048H97.4566V22.2858ZM112.931 16.2858C112.834 17.7143 112.354 18.9524 111.489 20.0001C110.912 20.6667 110.239 21.2382 109.47 21.7143C108.99 22.0001 108.413 22.2858 107.74 22.381C107.068 22.5715 106.395 22.5715 105.818 22.5715C104.665 22.5715 103.608 22.2858 102.647 21.8096C101.397 21.2382 100.532 20.381 99.7633 19.2382C98.9944 18.0953 98.7061 16.8572 98.7061 15.4286C98.7061 13.4286 99.3788 11.7143 100.724 10.381C102.07 9.04768 103.8 8.38102 105.818 8.38102C107.26 8.38102 108.509 8.76197 109.759 9.42864C110.912 10.1905 111.873 11.2382 112.546 12.6667L103.223 17.8096L102.166 15.8096L108.99 12.0953C108.509 11.6191 108.029 11.2382 107.452 11.0477C106.876 10.8572 106.299 10.762 105.818 10.762C104.473 10.762 103.416 11.2382 102.551 12.0953C101.686 12.9524 101.301 14.0953 101.301 15.5239C101.301 16.4763 101.493 17.2382 101.878 18.0001C102.262 18.6667 102.743 19.2382 103.415 19.6191C103.8 19.8096 104.184 20.0001 104.569 20.0953C104.953 20.1905 105.434 20.2858 105.818 20.2858C106.299 20.2858 106.779 20.2858 107.164 20.1905C107.548 20.0953 107.933 19.9048 108.413 19.7144C108.99 19.3334 109.567 18.8572 109.951 18.1905C110.335 17.5239 110.528 16.8572 110.528 16.0001L112.931 16.2858ZM121.581 10.762H121.196C119.947 10.762 118.985 11.1429 118.313 12.0001C117.64 12.8572 117.256 14.1905 117.256 15.8096V22.2858H114.757V8.66673H117.159V10.1905C117.64 9.42864 118.313 8.95245 119.082 8.66673C119.562 8.47625 120.235 8.38102 121.1 8.38102H121.484V10.762H121.581Z" />
<path id="Vector_4" d="M140.514 16.6667C140.514 18 140.418 18.8572 140.226 19.5238C139.938 20.4762 139.265 21.2381 138.208 21.9048C137.823 22.1905 137.343 22.2857 136.862 22.4762C136.382 22.5715 135.805 22.6667 135.324 22.6667C134.844 22.6667 134.459 22.5715 133.979 22.4762C133.018 22.1905 132.153 21.6191 131.576 20.7619C130.999 21.6191 130.134 22.1905 129.173 22.4762C128.981 22.5715 128.693 22.5715 128.404 22.6667C128.116 22.6667 127.828 22.7619 127.539 22.7619C126.578 22.7619 125.617 22.5715 124.848 22.0953C123.887 21.5238 123.214 20.7619 122.926 19.8096C122.734 19.1429 122.542 18.1905 122.542 16.9524V8.6667H125.041V16.7619C125.041 17.5238 125.041 18.0953 125.137 18.381C125.329 18.9524 125.617 19.4286 126.098 19.8096C126.482 20.0953 126.963 20.1905 127.539 20.1905C128.116 20.1905 128.501 20.0953 128.981 19.8096C129.462 19.5238 129.75 19.0476 129.942 18.4762C130.038 18 130.134 17.4286 130.134 16.7619V8.6667H132.633V16.7619C132.633 17.5238 132.729 18.0953 132.826 18.5715C132.922 19.0476 133.306 19.4286 133.787 19.8096C134.171 20.0953 134.652 20.1905 135.132 20.1905C135.709 20.1905 136.189 20.0953 136.574 19.8096C137.054 19.5238 137.439 19.0476 137.535 18.381C137.631 18 137.631 17.4286 137.631 16.7619V8.6667H140.13V16.6667H140.514ZM156.757 16.2857C156.661 17.7143 156.181 18.9524 155.316 20C154.739 20.6667 154.066 21.2381 153.297 21.7143C152.817 22 152.24 22.2857 151.567 22.381C150.894 22.5715 150.222 22.5715 149.645 22.5715C148.492 22.5715 147.434 22.2857 146.473 21.8096C145.224 21.2381 144.359 20.381 143.59 19.2381C142.821 18.0953 142.533 16.8572 142.533 15.4286C142.533 13.4286 143.206 11.7143 144.551 10.381C145.897 9.04765 147.627 8.38098 149.645 8.38098C151.087 8.38098 152.336 8.76193 153.586 9.4286C154.739 10.1905 155.7 11.2381 156.373 12.6667L147.05 17.8096L145.993 15.8096L152.817 12.0953C152.336 11.6191 151.856 11.2381 151.279 11.0476C150.702 10.8572 150.126 10.7619 149.645 10.7619C148.299 10.7619 147.242 11.2381 146.377 12.0953C145.512 12.9524 145.128 14.0953 145.128 15.5238C145.128 16.4762 145.32 17.2381 145.704 18C146.089 18.6667 146.569 19.2381 147.242 19.6191C147.627 19.8096 148.011 20 148.396 20.0953C148.78 20.1905 149.261 20.2857 149.645 20.2857C150.126 20.2857 150.606 20.2857 150.991 20.1905C151.375 20.0953 151.759 19.9048 152.24 19.7143C152.817 19.3334 153.393 18.8572 153.778 18.1905C154.162 17.5238 154.354 16.8572 154.354 16L156.757 16.2857ZM173 15.3334C173 17.2381 172.423 18.8572 171.174 20.2857C169.828 21.8096 168.002 22.5715 165.792 22.5715C164.831 22.5715 163.869 22.381 163.101 22.0953C162.332 21.8096 161.659 21.3334 161.082 20.8572C160.025 19.9048 159.352 18.6667 158.968 17.2381C158.776 16.381 158.679 15.1429 158.679 13.6191V2.38098H161.178V14.1905C161.178 15.4286 161.274 16.4762 161.563 17.1429C162.043 18.4762 162.812 19.3334 164.062 19.8096C164.638 20 165.215 20.0953 165.792 20.0953C167.137 20.0953 168.291 19.6191 169.156 18.7619C170.021 17.9048 170.501 16.7619 170.501 15.3334C170.501 14 170.117 12.8572 169.252 12C168.387 11.1429 167.329 10.6667 165.888 10.6667C165.119 10.6667 164.446 10.7619 163.773 11.0476C163.389 11.2381 162.812 11.4286 162.236 11.8096V9.33336C163.581 8.6667 164.734 8.38098 165.888 8.38098C166.561 8.38098 167.137 8.47622 167.714 8.57146C168.194 8.6667 168.771 8.85717 169.348 9.14289C170.501 9.71432 171.366 10.5715 172.039 11.6191C172.712 12.7619 173 14 173 15.3334Z" />
</g>
<path id="Vector_5" d="M40.4628 39.9048V30.1905H42.5772V30.9524H41.3278V39.1429H42.4811V39.9048H40.4628ZM46.9983 35.8095L47.9594 35.9048C47.8633 36.5714 47.575 37.0476 47.1905 37.4286C46.8061 37.8095 46.2294 38 45.6528 38C44.8839 38 44.3072 37.7143 43.8267 37.2381C43.3461 36.7619 43.1539 36 43.1539 35.1429C43.1539 34.5714 43.25 34 43.4422 33.619C43.6344 33.1429 43.9228 32.8571 44.3072 32.5714C44.6917 32.381 45.1722 32.1905 45.6528 32.1905C46.2294 32.1905 46.71 32.381 47.0944 32.6667C47.4789 32.9524 47.7672 33.4286 47.8633 34L46.9022 34.0952C46.8061 33.7143 46.6139 33.4286 46.4217 33.2381C46.2294 33.0476 45.9411 32.9524 45.6528 32.9524C45.1722 32.9524 44.7878 33.1429 44.4994 33.4286C44.2111 33.8095 44.0189 34.2857 44.0189 35.0476C44.0189 35.8095 44.115 36.2857 44.4033 36.6667C44.6917 37.0476 45.0761 37.1429 45.5567 37.1429C45.9411 37.1429 46.2294 37.0476 46.5178 36.7619C46.8061 36.5714 46.9983 36.2857 46.9983 35.8095ZM52.3805 37.1429C51.9961 37.4286 51.7078 37.619 51.3233 37.8095C51.035 37.9048 50.6505 38 50.2661 38C49.6894 38 49.2089 37.8095 48.8244 37.5238C48.5361 37.2381 48.3439 36.8571 48.3439 36.381C48.3439 36.0952 48.44 35.9048 48.5361 35.619C48.6322 35.4286 48.8244 35.2381 49.0167 35.0476C49.2089 34.9524 49.4011 34.8571 49.6894 34.7619C49.8817 34.6667 50.17 34.6667 50.5544 34.6667C51.3233 34.5714 51.9 34.4762 52.2844 34.381C52.2844 34.2857 52.2844 34.1905 52.2844 34.0952C52.2844 33.7143 52.1883 33.4286 51.9961 33.3333C51.7078 33.1429 51.4194 33.0476 50.9389 33.0476C50.4583 33.0476 50.17 33.1429 49.9778 33.2381C49.7855 33.4286 49.5933 33.619 49.4972 34.0952L48.5361 34C48.6322 33.619 48.7283 33.3333 48.9205 33.0476C49.1128 32.7619 49.4011 32.6667 49.7855 32.4762C50.17 32.381 50.5544 32.2857 51.035 32.2857C51.5155 32.2857 51.9 32.381 52.1883 32.4762C52.4767 32.5714 52.6689 32.7619 52.8611 32.8571C52.9572 33.0476 53.0533 33.2381 53.1494 33.5238C53.1494 33.7143 53.1494 34 53.1494 34.381V35.619C53.1494 36.4762 53.1494 37.0476 53.2455 37.2381C53.2455 37.4286 53.3417 37.7143 53.4378 37.9048H52.4767C52.4767 37.619 52.3805 37.4286 52.3805 37.1429ZM52.2844 35.0476C51.9 35.1429 51.4194 35.3333 50.7467 35.4286C50.3622 35.5238 50.0739 35.5238 49.8817 35.619C49.6894 35.7143 49.5933 35.8095 49.4972 35.9048C49.4011 36 49.4011 36.1905 49.4011 36.381C49.4011 36.6667 49.4972 36.8571 49.6894 37.0476C49.8817 37.2381 50.17 37.3333 50.5544 37.3333C50.9389 37.3333 51.2272 37.2381 51.5155 37.1429C51.8039 36.9524 51.9961 36.7619 52.1883 36.4762C52.2844 36.2857 52.3805 36 52.3805 35.5238V35.0476H52.2844ZM54.7833 32.2857H55.7444V36.4762L58.3394 32.2857H59.3967V37.8095H58.4355V33.619L55.7444 37.8095H54.7833V32.2857ZM58.0511 30.1905H58.6278C58.5317 30.6667 58.4355 30.9524 58.1472 31.1429C57.8589 31.3333 57.5705 31.5238 57.09 31.5238C56.6094 31.5238 56.3211 31.4286 56.0328 31.1429C55.7444 30.9524 55.6483 30.5714 55.5522 30.0952H56.225C56.3211 30.2857 56.4172 30.4762 56.5133 30.6667C56.7055 30.7619 56.8978 30.8571 57.09 30.8571C57.3783 30.8571 57.5705 30.7619 57.7628 30.6667C57.8589 30.6667 57.955 30.4762 58.0511 30.1905ZM60.2617 32.2857H64.7789V33.0476H62.9528V37.8095H61.9917V33.0476H60.1655V32.2857H60.2617ZM70.93 32.2857H71.8911V37.8095H70.93V32.2857ZM65.6439 32.2857H66.605V34.4762H67.7583C68.5272 34.4762 69.1039 34.6667 69.5844 34.9524C69.9689 35.2381 70.2572 35.619 70.2572 36.1905C70.2572 36.6667 70.065 37.0476 69.7767 37.3333C69.3922 37.619 68.8156 37.8095 68.0467 37.8095H65.6439V32.2857ZM66.605 37.0476H67.5661C68.1428 37.0476 68.6233 36.9524 68.8155 36.8571C69.1039 36.6667 69.2 36.4762 69.2 36.1905C69.2 35.9048 69.1039 35.7143 68.9117 35.5238C68.7194 35.3333 68.335 35.2381 67.6622 35.2381H66.5089V37.0476H66.605ZM73.6211 37.8095V36.7619H74.6783V37.8095C74.6783 38.1905 74.5822 38.4762 74.4861 38.7619C74.39 39.0476 74.1017 39.1429 73.8133 39.3333L73.525 38.9524C73.7172 38.8571 73.9094 38.7619 74.0055 38.5714C74.1017 38.381 74.1978 38.1905 74.1978 37.8095H73.6211ZM79.3878 32.2857H80.3489V34.6667C80.6372 34.6667 80.8294 34.5714 81.0217 34.4762C81.1178 34.381 81.31 34 81.5983 33.5238C81.7906 33.0476 81.9828 32.7619 82.0789 32.6667C82.175 32.5714 82.3672 32.4762 82.4633 32.381C82.6556 32.2857 82.8478 32.2857 83.2322 32.2857H83.4244V33.0476H83.1361C82.8478 33.0476 82.7517 33.0476 82.6555 33.1429C82.5594 33.2381 82.4633 33.4286 82.2711 33.8095C82.175 34.1905 81.9828 34.381 81.8867 34.5714C81.7905 34.6667 81.5983 34.8571 81.31 34.9524C81.6944 35.0476 82.0789 35.4286 82.4633 36.0952L83.5205 37.8095H82.4633L81.5022 36.0952C81.31 35.7143 81.1178 35.5238 80.9255 35.4286C80.7333 35.3333 80.5411 35.2381 80.3489 35.2381V37.8095H79.3878V32.2857ZM83.8089 35.0476C83.8089 34 84.0972 33.2381 84.6739 32.7619C85.1544 32.381 85.7311 32.1905 86.4039 32.1905C87.1728 32.1905 87.8456 32.4762 88.3261 32.9524C88.8067 33.4286 89.095 34.0952 89.095 35.0476C89.095 35.7143 88.9989 36.2857 88.8067 36.7619C88.6144 37.1429 88.3261 37.5238 87.8456 37.7143C87.4611 37.9048 86.9805 38.0952 86.5 38.0952C85.7311 38.0952 85.0583 37.8095 84.5778 37.3333C84.0972 36.6667 83.8089 36 83.8089 35.0476ZM84.77 35.0476C84.77 35.7143 84.9622 36.2857 85.2505 36.6667C85.5389 37.0476 85.9233 37.2381 86.4039 37.2381C86.8844 37.2381 87.2689 37.0476 87.5572 36.6667C87.8455 36.2857 88.0378 35.8095 88.0378 35.0476C88.0378 34.381 87.8455 33.8095 87.5572 33.5238C87.2689 33.1429 86.8844 32.9524 86.4039 32.9524C85.9233 32.9524 85.5389 33.1429 85.2505 33.5238C84.9622 33.8095 84.77 34.381 84.77 35.0476ZM89.3833 32.2857H93.9005V33.0476H92.0744V37.8095H91.1133V33.0476H89.3833V32.2857ZM94.3811 35.0476C94.3811 34 94.6694 33.2381 95.2461 32.7619C95.7267 32.381 96.3033 32.1905 96.9761 32.1905C97.745 32.1905 98.4178 32.4762 98.8983 32.9524C99.3789 33.4286 99.6672 34.0952 99.6672 35.0476C99.6672 35.7143 99.5711 36.2857 99.3789 36.7619C99.1867 37.1429 98.8983 37.5238 98.4178 37.7143C98.0333 37.9048 97.5528 38.0952 97.0722 38.0952C96.3033 38.0952 95.6306 37.8095 95.15 37.3333C94.5733 36.6667 94.3811 36 94.3811 35.0476ZM95.3422 35.0476C95.3422 35.7143 95.5344 36.2857 95.8228 36.6667C96.1111 37.0476 96.4956 37.2381 96.9761 37.2381C97.4567 37.2381 97.8411 37.0476 98.1294 36.6667C98.4178 36.2857 98.61 35.8095 98.61 35.0476C98.61 34.381 98.4178 33.8095 98.1294 33.5238C97.8411 33.1429 97.4567 32.9524 96.9761 32.9524C96.4956 32.9524 96.1111 33.1429 95.8228 33.5238C95.5344 33.8095 95.3422 34.381 95.3422 35.0476ZM100.724 39.9048V32.2857H101.589V33.0476C101.782 32.7619 101.974 32.5714 102.262 32.381C102.551 32.2857 102.839 32.1905 103.223 32.1905C103.704 32.1905 104.088 32.2857 104.473 32.5714C104.857 32.8571 105.146 33.1429 105.338 33.619C105.53 34.0952 105.626 34.5714 105.626 35.0476C105.626 35.619 105.53 36.0952 105.338 36.5714C105.146 37.0476 104.857 37.3333 104.473 37.619C104.088 37.9048 103.704 38 103.223 38C102.935 38 102.647 37.9048 102.358 37.8095C102.07 37.7143 101.878 37.5238 101.782 37.3333V40H100.724V39.9048ZM101.589 35.0476C101.589 35.7143 101.782 36.2857 102.07 36.6667C102.358 37.0476 102.743 37.1429 103.127 37.1429C103.512 37.1429 103.896 36.9524 104.184 36.5714C104.473 36.1905 104.665 35.7143 104.665 34.9524C104.665 34.2857 104.473 33.7143 104.184 33.3333C103.896 32.9524 103.512 32.7619 103.127 32.7619C102.743 32.7619 102.358 32.9524 102.07 33.3333C101.686 33.8095 101.589 34.381 101.589 35.0476ZM111.969 32.2857H112.931V37.8095H111.969V32.2857ZM106.683 32.2857H107.644V34.4762H108.798C109.567 34.4762 110.143 34.6667 110.624 34.9524C111.008 35.2381 111.297 35.619 111.297 36.1905C111.297 36.6667 111.104 37.0476 110.816 37.3333C110.432 37.619 109.855 37.8095 109.086 37.8095H106.683V32.2857ZM107.644 37.0476H108.606C109.182 37.0476 109.663 36.9524 109.855 36.8571C110.143 36.6667 110.239 36.4762 110.239 36.1905C110.239 35.9048 110.143 35.7143 109.951 35.5238C109.759 35.3333 109.374 35.2381 108.702 35.2381H107.644V37.0476ZM118.217 36L119.178 36.0952C118.986 36.6667 118.697 37.1429 118.313 37.4286C117.928 37.7143 117.352 37.9048 116.679 37.9048C115.91 37.9048 115.237 37.619 114.757 37.1429C114.276 36.6667 114.084 35.9048 114.084 35.0476C114.084 34.0952 114.372 33.4286 114.853 32.8571C115.333 32.381 116.006 32.0952 116.775 32.0952C117.544 32.0952 118.121 32.381 118.601 32.8571C119.082 33.3333 119.274 34.0952 119.274 34.9524C119.274 35.0476 119.274 35.0476 119.274 35.2381H115.141C115.141 35.8095 115.333 36.2857 115.622 36.6667C115.91 36.9524 116.294 37.1429 116.775 37.1429C117.159 37.1429 117.448 37.0476 117.64 36.8571C117.928 36.7619 118.121 36.4762 118.217 36ZM115.141 34.4762H118.217C118.217 34 118.024 33.619 117.832 33.4286C117.544 33.0476 117.159 32.8571 116.679 32.8571C116.198 32.8571 115.91 33.0476 115.622 33.3333C115.333 33.619 115.141 34 115.141 34.4762ZM123.407 39.9048V32.2857H124.272V33.0476C124.464 32.7619 124.656 32.5714 124.944 32.381C125.233 32.2857 125.521 32.1905 125.906 32.1905C126.386 32.1905 126.771 32.2857 127.155 32.5714C127.539 32.8571 127.828 33.1429 128.02 33.619C128.212 34.0952 128.308 34.5714 128.308 35.0476C128.308 35.619 128.212 36.0952 128.02 36.5714C127.828 37.0476 127.539 37.3333 127.155 37.619C126.771 37.9048 126.386 38 125.906 38C125.617 38 125.329 37.9048 125.041 37.8095C124.752 37.7143 124.56 37.5238 124.464 37.3333V40H123.407V39.9048ZM124.272 35.0476C124.272 35.7143 124.464 36.2857 124.752 36.6667C125.041 37.0476 125.425 37.1429 125.809 37.1429C126.194 37.1429 126.578 36.9524 126.867 36.5714C127.155 36.1905 127.347 35.7143 127.347 34.9524C127.347 34.2857 127.155 33.7143 126.867 33.3333C126.578 32.9524 126.194 32.7619 125.809 32.7619C125.425 32.7619 125.041 32.9524 124.752 33.3333C124.368 33.8095 124.272 34.381 124.272 35.0476ZM133.018 37.1429C132.633 37.4286 132.345 37.619 131.961 37.8095C131.672 37.9048 131.288 38 130.903 38C130.327 38 129.846 37.8095 129.462 37.5238C129.173 37.2381 128.981 36.8571 128.981 36.381C128.981 36.0952 129.077 35.9048 129.173 35.619C129.269 35.4286 129.462 35.2381 129.654 35.0476C129.846 34.9524 130.038 34.8571 130.327 34.7619C130.519 34.6667 130.807 34.6667 131.192 34.6667C131.961 34.5714 132.537 34.4762 132.922 34.381C132.922 34.2857 132.922 34.1905 132.922 34.0952C132.922 33.7143 132.826 33.4286 132.633 33.3333C132.345 33.1429 132.057 33.0476 131.576 33.0476C131.096 33.0476 130.807 33.1429 130.615 33.2381C130.423 33.4286 130.231 33.619 130.134 34.0952L129.173 34C129.269 33.619 129.366 33.3333 129.558 33.0476C129.75 32.7619 130.038 32.6667 130.423 32.4762C130.807 32.381 131.192 32.2857 131.672 32.2857C132.153 32.2857 132.537 32.381 132.826 32.4762C133.114 32.5714 133.306 32.7619 133.498 32.8571C133.594 33.0476 133.691 33.2381 133.787 33.5238C133.787 33.7143 133.787 34 133.787 34.381V35.619C133.787 36.4762 133.787 37.0476 133.883 37.2381C133.883 37.4286 133.979 37.7143 134.075 37.9048H133.114C133.114 37.619 133.018 37.4286 133.018 37.1429ZM132.922 35.0476C132.537 35.1429 132.057 35.3333 131.384 35.4286C130.999 35.5238 130.711 35.5238 130.519 35.619C130.327 35.7143 130.231 35.8095 130.134 35.9048C130.038 36 130.038 36.1905 130.038 36.381C130.038 36.6667 130.134 36.8571 130.327 37.0476C130.519 37.2381 130.807 37.3333 131.192 37.3333C131.576 37.3333 131.864 37.2381 132.153 37.1429C132.441 36.9524 132.633 36.7619 132.826 36.4762C132.922 36.2857 133.018 36 133.018 35.5238V35.0476H132.922ZM139.457 30H140.322C140.322 30.381 140.226 30.6667 140.034 30.7619C139.938 30.9524 139.746 31.0476 139.553 31.0476C139.361 31.0476 138.977 31.1429 138.4 31.1429C137.631 31.1429 137.054 31.2381 136.766 31.3333C136.478 31.5238 136.286 31.7143 136.189 32.0952C136.093 32.381 135.997 32.8571 135.997 33.3333C136.189 32.9524 136.478 32.7619 136.862 32.5714C137.151 32.381 137.535 32.2857 137.919 32.2857C138.688 32.2857 139.265 32.5714 139.746 33.0476C140.226 33.5238 140.418 34.1905 140.418 35.0476C140.418 35.7143 140.322 36.1905 140.034 36.6667C139.746 37.0476 139.553 37.4286 139.169 37.619C138.881 37.8095 138.4 38 137.823 38C137.151 38 136.67 37.8095 136.286 37.5238C135.901 37.2381 135.613 36.8571 135.421 36.381C135.228 35.9048 135.132 35.1429 135.132 33.9048C135.132 32.4762 135.421 31.4286 135.901 30.9524C136.382 30.4762 137.151 30.1905 138.208 30.1905C138.881 30.1905 139.169 30.1905 139.265 30.1905C139.361 30.0952 139.361 30.0952 139.457 30ZM139.361 35.0476C139.361 34.4762 139.265 34 138.977 33.619C138.688 33.2381 138.304 33.0476 137.823 33.0476C137.343 33.0476 136.862 33.2381 136.574 33.619C136.286 34 136.189 34.5714 136.189 35.1429C136.189 35.8095 136.382 36.2857 136.67 36.5714C136.958 36.9524 137.343 37.0476 137.823 37.0476C138.304 37.0476 138.688 36.8571 138.977 36.4762C139.265 36.1905 139.361 35.7143 139.361 35.0476ZM141.187 35.0476C141.187 34 141.476 33.2381 142.052 32.7619C142.533 32.381 143.109 32.1905 143.782 32.1905C144.551 32.1905 145.224 32.4762 145.704 32.9524C146.185 33.4286 146.473 34.0952 146.473 35.0476C146.473 35.7143 146.377 36.2857 146.185 36.7619C145.993 37.1429 145.704 37.5238 145.224 37.7143C144.839 37.9048 144.359 38.0952 143.878 38.0952C143.109 38.0952 142.437 37.8095 141.956 37.3333C141.379 36.6667 141.187 36 141.187 35.0476ZM142.148 35.0476C142.148 35.7143 142.341 36.2857 142.629 36.6667C142.917 37.0476 143.302 37.2381 143.782 37.2381C144.263 37.2381 144.647 37.0476 144.936 36.6667C145.224 36.2857 145.416 35.8095 145.416 35.0476C145.416 34.381 145.224 33.8095 144.936 33.5238C144.647 33.1429 144.263 32.9524 143.782 32.9524C143.302 32.9524 142.917 33.1429 142.629 33.5238C142.244 33.8095 142.148 34.381 142.148 35.0476ZM146.762 32.2857H151.279V33.0476H149.453V37.8095H148.492V33.0476H146.666V32.2857H146.762ZM155.7 37.1429C155.316 37.4286 155.027 37.619 154.643 37.8095C154.354 37.9048 153.97 38 153.586 38C153.009 38 152.528 37.8095 152.144 37.5238C151.856 37.2381 151.663 36.8571 151.663 36.381C151.663 36.0952 151.759 35.9048 151.856 35.619C151.952 35.4286 152.144 35.2381 152.336 35.0476C152.528 34.9524 152.721 34.8571 153.009 34.7619C153.201 34.6667 153.489 34.6667 153.874 34.6667C154.643 34.5714 155.219 34.4762 155.604 34.381C155.604 34.2857 155.604 34.1905 155.604 34.0952C155.604 33.7143 155.508 33.4286 155.316 33.3333C155.027 33.1429 154.739 33.0476 154.258 33.0476C153.778 33.0476 153.489 33.1429 153.297 33.2381C153.105 33.4286 152.913 33.619 152.817 34.0952L151.856 34C151.952 33.619 152.048 33.3333 152.24 33.0476C152.432 32.7619 152.721 32.6667 153.105 32.4762C153.489 32.381 153.874 32.2857 154.354 32.2857C154.835 32.2857 155.219 32.381 155.508 32.4762C155.796 32.5714 155.988 32.7619 156.181 32.8571C156.277 33.0476 156.373 33.2381 156.469 33.5238C156.469 33.7143 156.469 34 156.469 34.381V35.619C156.469 36.4762 156.469 37.0476 156.565 37.2381C156.565 37.4286 156.661 37.7143 156.757 37.9048H155.796C155.796 37.619 155.7 37.4286 155.7 37.1429ZM155.604 35.0476C155.219 35.1429 154.739 35.3333 154.066 35.4286C153.682 35.5238 153.393 35.5238 153.201 35.619C153.009 35.7143 152.913 35.8095 152.817 35.9048C152.721 36 152.721 36.1905 152.721 36.381C152.721 36.6667 152.817 36.8571 153.009 37.0476C153.201 37.2381 153.489 37.3333 153.874 37.3333C154.258 37.3333 154.547 37.2381 154.835 37.1429C155.123 36.9524 155.316 36.7619 155.508 36.4762C155.604 36.2857 155.7 36 155.7 35.5238V35.0476H155.604ZM158.007 32.2857H158.968V34.5714H160.121C160.217 33.8095 160.409 33.1429 160.89 32.7619C161.274 32.381 161.851 32.0952 162.524 32.0952C163.101 32.0952 163.485 32.1905 163.869 32.4762C164.254 32.7619 164.446 33.0476 164.638 33.4286C164.831 33.8095 164.927 34.381 164.927 35.0476C164.927 36 164.734 36.7619 164.254 37.2381C163.773 37.7143 163.197 38 162.428 38C161.755 38 161.178 37.8095 160.794 37.3333C160.409 36.8571 160.121 36.2857 160.121 35.4286H158.968V37.9048H158.007V32.2857ZM162.524 32.9524C162.043 32.9524 161.659 33.1429 161.467 33.5238C161.178 33.9048 161.082 34.381 161.082 35.0476C161.082 35.8095 161.178 36.381 161.467 36.7619C161.755 37.1429 162.043 37.3333 162.524 37.3333C162.908 37.3333 163.293 37.1429 163.581 36.8571C163.869 36.5714 163.966 36 163.966 35.2381C163.966 34.5714 163.869 34 163.581 33.619C163.389 33.1429 163.004 32.9524 162.524 32.9524ZM165.311 32.2857H169.828V33.0476H168.002V37.8095H167.041V33.0476H165.311V32.2857ZM172.327 39.9048H170.213V39.1429H171.366V30.9524H170.213V30.1905H172.327V39.9048Z" />
</g>
<defs>
<clipPath id="clip0_62_1091">
<rect width="173" height="40" />
</clipPath>
</defs>
</svg>
