<svg width="22" height="20" viewBox="0 0 22 20" xmlns="http://www.w3.org/2000/svg">
<path id="telegramm" d="M0.385771 9.59984L5.44368 11.5653L7.41539 18.1766C7.50112 18.6233 8.01548 18.7126 8.35839 18.4446L11.1874 16.0324C11.4445 15.7644 11.8732 15.7644 12.2161 16.0324L17.274 19.8741C17.6169 20.1421 18.1313 19.9634 18.217 19.5167L21.989 0.755067C22.0747 0.308361 21.6461 -0.138341 21.2174 0.0403416L0.385771 8.43841C-0.12859 8.61709 -0.12859 9.42116 0.385771 9.59984ZM7.15822 10.5826L17.1025 4.23937C17.274 4.15003 17.4454 4.41806 17.274 4.5074L9.12993 12.4588C8.87275 12.7268 8.61556 13.0841 8.61556 13.5309L8.35839 15.675C8.35839 15.9431 7.92975 16.0324 7.84402 15.675L6.81529 11.744C6.55811 11.2973 6.72958 10.7613 7.15822 10.5826Z"/>
</svg>
