<svg width="25" height="16" viewBox="0 0 25 16" xmlns="http://www.w3.org/2000/svg">
<path id="Vkontakte" opacity="0.7" fill-rule="evenodd" clip-rule="evenodd" d="M24.4263 1.08338C24.6001 0.458904 24.4264 0 23.5992 0H20.8642C20.1688 0 19.8482 0.396418 19.6743 0.833547C19.6743 0.833547 18.2835 4.48692 16.3132 6.86002C15.6757 7.54698 15.3859 7.76554 15.0382 7.76554C14.8644 7.76554 14.6127 7.54698 14.6127 6.9225V1.08338C14.6127 0.333987 14.4109 0 13.8314 0H9.53346C9.09892 0 8.83752 0.347815 8.83752 0.677468C8.83752 1.38791 9.82266 1.55173 9.92421 3.55018V7.89051C9.92421 8.84211 9.76472 9.01465 9.417 9.01465C8.48984 9.01465 6.23445 5.34493 4.89682 1.14581C4.63466 0.329652 4.37174 0 3.67274 0H0.937756C0.1563 0 0 0.396418 0 0.833547C0 1.61421 0.927247 5.48615 4.31734 10.6071C6.57741 14.1043 9.76167 16 12.6592 16C14.3977 16 14.6128 15.579 14.6128 14.8537V12.2105C14.6128 11.3685 14.7775 11.2003 15.328 11.2003C15.7336 11.2003 16.4291 11.4189 18.0517 13.1051C19.9061 15.1035 20.2119 16 21.2549 16H23.99C24.7714 16 25.1621 15.579 24.9367 14.7481C24.69 13.9199 23.8047 12.7183 22.6298 11.2941C21.9923 10.4822 21.0362 9.60792 20.7464 9.17068C20.3408 8.60869 20.4566 8.3588 20.7464 7.85924C20.7464 7.85924 24.0786 2.80073 24.4263 1.08338Z"/>
</svg>
