<svg width="21" height="21" viewBox="0 0 21 21" fill="none" xmlns="http://www.w3.org/2000/svg">
<g opacity="0.5">
<rect width="21" height="21" rx="10.5" fill="white"/>
<path d="M9.12738 14.5065L12.5133 10.8186C12.5873 10.722 12.6428 10.6062 12.6428 10.4903C12.6428 10.3745 12.5873 10.2586 12.5133 10.1814L9.12738 6.49346C8.96086 6.30038 8.66482 6.30038 8.49829 6.47416C8.31327 6.64793 8.31327 6.93756 8.47979 7.13065L11.5882 10.5097L8.47979 13.8693C8.31327 14.0431 8.31327 14.3521 8.49829 14.5258C8.66482 14.6996 8.96086 14.6996 9.12738 14.5065Z" fill="#1F74CA"/>
<path fill-rule="evenodd" clip-rule="evenodd" d="M8.85336 14.2845C8.82689 14.3152 8.78241 14.3137 8.75999 14.2903L8.75359 14.2836L8.74684 14.2773C8.73124 14.2626 8.71511 14.2335 8.7143 14.1912C8.71347 14.1477 8.72936 14.1176 8.74149 14.1049L8.74573 14.1005L12.0673 10.5103L8.75121 6.90555C8.72587 6.87466 8.71361 6.83686 8.7143 6.80172C8.71499 6.76665 8.72791 6.74052 8.74684 6.72274L8.75359 6.7164L8.75999 6.70973C8.78241 6.68633 8.82689 6.68477 8.85336 6.71547L8.85691 6.71958L12.2516 10.417C12.2594 10.4252 12.2694 10.439 12.2768 10.456C12.2842 10.4729 12.2857 10.4852 12.2857 10.4903C12.2857 10.5029 12.2771 10.5429 12.2347 10.6014L8.85691 14.2804L8.85336 14.2845ZM9.39734 14.7332C9.09215 15.0816 8.55343 15.0841 8.2431 14.7681C7.92244 14.4599 7.92489 13.9427 8.21567 13.6363L11.1091 10.509L8.20943 7.35689L8.20578 7.35265C7.93528 7.03901 7.9153 6.54651 8.24317 6.23183C8.55352 5.91588 9.09218 5.91845 9.39734 6.26678L12.778 9.94895C12.9029 10.0807 13 10.2767 13 10.4903C13 10.7088 12.8987 10.8963 12.8 11.025L12.7906 11.0373L9.39734 14.7332Z" fill="#1F74CA"/>
</g>
</svg>
