<svg width="24" height="20" viewBox="0 0 24 20" fill="none" xmlns="http://www.w3.org/2000/svg">
<g id="check">
<g id="Ellipse 3">
<mask id="path-1-inside-1_2_26" fill="white">
<path d="M20.0829 12.5077C19.5412 14.5567 18.35 16.3844 16.6809 17.7277C15.0117 19.071 12.9506 19.8607 10.7943 19.983C8.63799 20.1054 6.49768 19.5541 4.68147 18.4085C2.86526 17.2629 1.46682 15.5821 0.68746 13.6081C-0.0919016 11.634 -0.211988 9.46855 0.344488 7.42338C0.900963 5.3782 2.1053 3.5588 3.78413 2.22708C5.46296 0.895363 7.5297 0.120008 9.68683 0.0126318C11.844 -0.0947446 13.9802 0.471395 15.7881 1.62956L15.0236 2.77565C13.4632 1.77607 11.6195 1.28745 9.75771 1.38012C7.89594 1.4728 6.1122 2.14198 4.66324 3.29136C3.21428 4.44073 2.17485 6.01101 1.69457 7.77615C1.21429 9.54129 1.31794 11.4102 1.99058 13.114C2.66323 14.8177 3.87019 16.2684 5.43771 17.2571C7.00524 18.2458 8.85248 18.7217 10.7135 18.6161C12.5746 18.5105 14.3535 17.8289 15.7941 16.6696C17.2347 15.5102 18.2628 13.9327 18.7303 12.1643L20.0829 12.5077Z"/>
</mask>
<path d="M20.0829 12.5077C19.5412 14.5567 18.35 16.3844 16.6809 17.7277C15.0117 19.071 12.9506 19.8607 10.7943 19.983C8.63799 20.1054 6.49768 19.5541 4.68147 18.4085C2.86526 17.2629 1.46682 15.5821 0.68746 13.6081C-0.0919016 11.634 -0.211988 9.46855 0.344488 7.42338C0.900963 5.3782 2.1053 3.5588 3.78413 2.22708C5.46296 0.895363 7.5297 0.120008 9.68683 0.0126318C11.844 -0.0947446 13.9802 0.471395 15.7881 1.62956L15.0236 2.77565C13.4632 1.77607 11.6195 1.28745 9.75771 1.38012C7.89594 1.4728 6.1122 2.14198 4.66324 3.29136C3.21428 4.44073 2.17485 6.01101 1.69457 7.77615C1.21429 9.54129 1.31794 11.4102 1.99058 13.114C2.66323 14.8177 3.87019 16.2684 5.43771 17.2571C7.00524 18.2458 8.85248 18.7217 10.7135 18.6161C12.5746 18.5105 14.3535 17.8289 15.7941 16.6696C17.2347 15.5102 18.2628 13.9327 18.7303 12.1643L20.0829 12.5077Z" stroke="#31A5FF" stroke-width="4" mask="url(#path-1-inside-1_2_26)"/>
</g>
<path id="Vector 3" d="M5.83124 8.09513L10.6905 13.3332L22.9999 1.27051" stroke="#31A5FF" stroke-width="2"/>
</g>
</svg>
